0
SECTION
2
HEADER
9
$INSUNITS
70
4
0
ENDSEC
0
SECTION
2
TABLES
0
TABLE
2
LTYPE
0
LTYPE
72
65
70
64
2
CONTINUOUS
3
______
73
0
40
0
0
ENDTAB
0
TABLE
2
LAYER
0
ENDTAB
0
ENDSEC
0
SECTION
2
ENTITIES
0
LINE
8
front_outsideCutPath
10
0
20
139
11
0
21
107
0
LINE
8
front_outsideCutPath
10
0
20
107
11
3
21
107
0
LINE
8
front_outsideCutPath
10
3
20
107
11
3
21
83
0
LINE
8
front_outsideCutPath
10
3
20
83
11
0
21
83
0
LINE
8
front_outsideCutPath
10
0
20
83
11
0
21
59
0
LINE
8
front_outsideCutPath
10
0
20
59
11
3
21
59
0
LINE
8
front_outsideCutPath
10
3
20
59
11
3
21
35
0
LINE
8
front_outsideCutPath
10
3
20
35
11
0
21
35
0
LINE
8
front_outsideCutPath
10
0
20
35
11
0
21
11
0
LINE
8
front_outsideCutPath
10
0
20
11
11
0
21
3
0
LINE
8
front_outsideCutPath
10
0
20
3
11
35.5
21
3
0
LINE
8
front_outsideCutPath
10
35.5
20
3
11
35.5
21
6
0
LINE
8
front_outsideCutPath
10
35.5
20
6
11
59.5
21
6
0
LINE
8
front_outsideCutPath
10
59.5
20
6
11
59.5
21
3
0
LINE
8
front_outsideCutPath
10
59.5
20
3
11
83.5
21
3
0
LINE
8
front_outsideCutPath
10
83.5
20
3
11
83.5
21
6
0
LINE
8
front_outsideCutPath
10
83.5
20
6
11
107.5
21
6
0
LINE
8
front_outsideCutPath
10
107.5
20
6
11
107.5
21
3
0
LINE
8
front_outsideCutPath
10
107.5
20
3
11
131.5
21
3
0
LINE
8
front_outsideCutPath
10
131.5
20
3
11
131.5
21
6
0
LINE
8
front_outsideCutPath
10
131.5
20
6
11
155.5
21
6
0
LINE
8
front_outsideCutPath
10
155.5
20
6
11
155.5
21
3
0
LINE
8
front_outsideCutPath
10
155.5
20
3
11
179.5
21
3
0
LINE
8
front_outsideCutPath
10
179.5
20
3
11
191
21
3
0
LINE
8
front_outsideCutPath
10
191
20
3
11
191
21
35
0
LINE
8
front_outsideCutPath
10
191
20
35
11
188
21
35
0
LINE
8
front_outsideCutPath
10
188
20
35
11
188
21
59
0
LINE
8
front_outsideCutPath
10
188
20
59
11
191
21
59
0
LINE
8
front_outsideCutPath
10
191
20
59
11
191
21
83
0
LINE
8
front_outsideCutPath
10
191
20
83
11
188
21
83
0
LINE
8
front_outsideCutPath
10
188
20
83
11
188
21
107
0
LINE
8
front_outsideCutPath
10
188
20
107
11
191
21
107
0
LINE
8
front_outsideCutPath
10
191
20
107
11
191
21
131
0
LINE
8
front_outsideCutPath
10
191
20
131
11
191
21
139
0
LINE
8
front_outsideCutPath
10
191
20
139
11
155.5
21
139
0
LINE
8
front_outsideCutPath
10
155.5
20
139
11
155.5
21
136
0
LINE
8
front_outsideCutPath
10
155.5
20
136
11
131.5
21
136
0
LINE
8
front_outsideCutPath
10
131.5
20
136
11
131.5
21
139
0
LINE
8
front_outsideCutPath
10
131.5
20
139
11
107.5
21
139
0
LINE
8
front_outsideCutPath
10
107.5
20
139
11
107.5
21
136
0
LINE
8
front_outsideCutPath
10
107.5
20
136
11
83.5
21
136
0
LINE
8
front_outsideCutPath
10
83.5
20
136
11
83.5
21
139
0
LINE
8
front_outsideCutPath
10
83.5
20
139
11
59.5
21
139
0
LINE
8
front_outsideCutPath
10
59.5
20
139
11
59.5
21
136
0
LINE
8
front_outsideCutPath
10
59.5
20
136
11
35.5
21
136
0
LINE
8
front_outsideCutPath
10
35.5
20
136
11
35.5
21
139
0
LINE
8
front_outsideCutPath
10
35.5
20
139
11
11.5
21
139
0
LINE
8
front_outsideCutPath
10
11.5
20
139
11
0
21
139
0
LINE
8
front_labelLayer
10
72.9683594
20
75.283491
11
72.9683594
21
73.5702098
0
LINE
8
front_labelLayer
10
72.9683594
20
73.5702098
11
69.2628906
21
73.5702098
0
LINE
8
front_labelLayer
10
69.2628906
20
73.5702098
11
69.2628906
21
60.727241
0
LINE
8
front_labelLayer
10
69.2628906
20
60.727241
11
67.0582031
21
60.727241
0
LINE
8
front_labelLayer
10
67.0582031
20
60.727241
11
67.0582031
21
73.5702098
0
LINE
8
front_labelLayer
10
67.0582031
20
73.5702098
11
64.4550781
21
73.5702098
0
LINE
8
front_labelLayer
10
64.4550781
20
73.5702098
11
64.4550781
21
74.5663035
0
LINE
8
front_labelLayer
10
64.4550781
20
74.5663035
11
67.0582031
21
75.3631785
0
LINE
8
front_labelLayer
10
67.0582031
20
75.3631785
11
67.0582031
21
76.1733348
0
LINE
8
front_labelLayer
10
74.4558594
20
81.074116
11
73.8847656
21
79.3077098
0
LINE
8
front_labelLayer
10
69.2628906
20
76.2264598
11
69.2628906
21
75.283491
0
LINE
8
front_labelLayer
10
69.2628906
20
75.283491
11
72.9683594
21
75.283491
0
ARC
8
front_labelLayer
10
75.9930242
20
76.276055
40
8.9354115
50
167.5775928
51
180.6586788
0
ARC
8
front_labelLayer
10
71.7913033
20
77.255654
40
4.6216334
50
141.7433818
51
168.2322105
0
ARC
8
front_labelLayer
10
71.1071782
20
77.6127158
40
3.8659939
50
98.2551517
51
139.620331
0
ARC
8
front_labelLayer
10
71.7078528
20
74.8378312
40
6.7012401
50
89.6696973
51
99.9314384
0
ARC
8
front_labelLayer
10
71.7095259
20
74.439438
40
7.0996179
50
81.5640971
51
89.7017343
0
ARC
8
front_labelLayer
10
71.2104127
20
70.9573509
40
10.6172662
50
75.9739895
51
81.6564804
0
ARC
8
front_labelLayer
10
70.3539089
20
67.4047624
40
14.271553
50
73.2963552
51
76.0946142
0
ARC
8
front_labelLayer
10
70.5695985
20
69.1280657
40
10.7058622
50
71.9613155
51
76.5918256
0
ARC
8
front_labelLayer
10
71.4001594
20
72.6513689
40
7.0860041
50
76.5183669
51
83.0216667
0
ARC
8
front_labelLayer
10
71.689487
20
74.9780825
40
4.741377
50
83.0760763
51
89.7927113
0
ARC
8
front_labelLayer
10
71.6799633
20
76.7462926
40
2.9732556
50
89.4859107
51
103.4197605
0
ARC
8
front_labelLayer
10
71.411903
20
77.7761489
40
1.90943
50
102.7677428
51
144.3380381
0
ARC
8
front_labelLayer
10
71.9519339
20
77.4286878
40
2.5509674
50
145.0688534
51
162.1801701
0
ARC
8
front_labelLayer
10
73.803502
20
76.8057261
40
4.5044231
50
161.843747
51
171.7847169
0
ARC
8
front_labelLayer
10
76.8234589
20
76.3521345
40
7.5582248
50
171.6527666
51
178.4383589
0
ARC
8
front_labelLayer
10
79.6718776
20
76.2306753
40
10.4089876
50
178.1973301
51
180.0232043
0
LINE
8
front_labelLayer
10
84.0050781
20
75.389741
11
83.6996094
21
73.3444285
0
LINE
8
front_labelLayer
10
77.8292969
20
68.536616
11
77.8292969
21
60.727241
0
LINE
8
front_labelLayer
10
77.8292969
20
60.727241
11
75.6246094
21
60.727241
0
LINE
8
front_labelLayer
10
75.6246094
20
60.727241
11
75.6246094
21
75.283491
0
LINE
8
front_labelLayer
10
75.6246094
20
75.283491
11
77.4441406
21
75.283491
0
LINE
8
front_labelLayer
10
77.4441406
20
75.283491
11
77.6964844
21
72.5873973
0
LINE
8
front_labelLayer
10
77.6964844
20
72.5873973
11
77.8027344
21
72.5873973
0
ARC
8
front_labelLayer
10
82.2878659
20
65.4277736
40
10.1213678
50
84.9922997
51
90.1281141
0
ARC
8
front_labelLayer
10
82.5309353
20
68.151095
40
7.387225
50
78.4891799
51
85.0266121
0
ARC
8
front_labelLayer
10
81.5874941
20
63.8600723
40
9.7166889
50
77.4454012
51
81.6360381
0
ARC
8
front_labelLayer
10
82.0108376
20
66.7781398
40
6.7680806
50
81.5884321
51
87.1916396
0
ARC
8
front_labelLayer
10
82.1027936
20
68.3726971
40
5.170951
50
87.3436549
51
89.9660303
0
ARC
8
front_labelLayer
10
82.0814268
20
69.7236541
40
3.8200713
50
89.6335425
51
137.0880774
0
ARC
8
front_labelLayer
10
83.0189279
20
68.6694038
40
5.2262225
50
135.6208875
51
138.8377152
0
ARC
8
front_labelLayer
10
82.8815663
20
68.8034847
40
5.0345698
50
138.9575745
51
174.5422261
0
ARC
8
front_labelLayer
10
84.5211928
20
68.5469281
40
6.6919038
50
173.6907498
51
180.0882916
0
ARC
8
front_labelLayer
10
84.2893956
20
68.9328412
40
7.4453042
50
139.4139296
51
150.603283
0
ARC
8
front_labelLayer
10
82.9544434
20
70.0767569
40
5.6872824
50
124.2321436
51
139.416119
0
ARC
8
front_labelLayer
10
82.2406628
20
71.1542063
40
4.3949785
50
89.6796672
51
124.4405653
0
ARC
8
front_labelLayer
10
87.9039375
20
67.941875
40
11.3881182
50
349.176191
51
0.3862587
0
ARC
8
front_labelLayer
10
91.7380516
20
67.1775372
40
7.4787443
50
330.2507023
51
349.4116451
0
ARC
8
front_labelLayer
10
92.9179977
20
66.564247
40
6.1502199
50
318.1439704
51
329.7566225
0
ARC
8
front_labelLayer
10
93.130959
20
66.3935796
40
5.8777407
50
278.8959153
51
317.9979102
0
ARC
8
front_labelLayer
10
92.5822345
20
69.0225684
40
8.5610336
50
269.7502798
51
279.80332
0
ARC
8
front_labelLayer
10
92.4932415
20
67.5412981
40
7.0798707
50
253.5436905
51
270.418241
0
ARC
8
front_labelLayer
10
92.2575697
20
66.6296566
40
6.1388964
50
238.8115656
51
253.2428249
0
ARC
8
front_labelLayer
10
92.1815056
20
66.4766906
40
5.9686653
50
207.7946982
51
238.6757945
0
ARC
8
front_labelLayer
10
93.2728516
20
67.1450986
40
7.2462468
50
205.6560288
51
208.4461662
0
ARC
8
front_labelLayer
10
94.1135759
20
67.4954024
40
8.1558963
50
188.9102471
51
205.3171442
0
ARC
8
front_labelLayer
10
96.9466638
20
67.975235
40
11.0291712
50
179.7744758
51
189.0932825
0
ARC
8
front_labelLayer
10
97.3645744
20
68.0961815
40
11.4472589
50
169.2442985
51
180.3880771
0
ARC
8
front_labelLayer
10
93.4771698
20
68.864581
40
7.4848065
50
150.7111461
51
169.4695513
0
ARC
8
front_labelLayer
10
92.2362045
20
69.5018608
40
6.0909311
50
138.1759572
51
150.2287319
0
ARC
8
front_labelLayer
10
92.0297678
20
69.6602756
40
5.83149
50
99.1759341
51
137.9832714
0
ARC
8
front_labelLayer
10
92.5979322
20
66.9864311
40
8.562778
50
89.7326269
51
100.0759798
0
ARC
8
front_labelLayer
10
92.7114904
20
68.141173
40
7.4083086
50
73.5222763
51
90.5692289
0
ARC
8
front_labelLayer
10
93.1459438
20
69.7196572
40
5.7715069
50
41.1445682
51
73.2133877
0
ARC
8
front_labelLayer
10
92.316606
20
69.0068533
40
6.8650442
50
13.501436
51
41.0703394
0
ARC
8
front_labelLayer
10
89.1124751
20
68.1683753
40
10.1766074
50
1.1277175
51
13.8800006
0
ARC
8
front_labelLayer
10
86.3519241
20
68.0204693
40
12.9398728
50
359.9919325
51
1.5419313
0
ARC
8
front_labelLayer
10
99.3662901
20
67.9613511
40
11.164484
50
179.7059564
51
187.9160794
0
ARC
8
front_labelLayer
10
95.2715057
20
67.3731385
40
7.027734
50
187.7639199
51
200.0976918
0
ARC
8
front_labelLayer
10
93.0157108
20
66.5466126
40
4.6252865
50
200.084602
51
216.9131628
0
ARC
8
front_labelLayer
10
92.1919692
20
65.9584226
40
3.6134803
50
217.3009604
51
261.7099049
0
ARC
8
front_labelLayer
10
92.5743759
20
67.7832304
40
5.4755716
50
260.5033226
51
270.2476917
0
ARC
8
front_labelLayer
10
92.6473668
20
67.4284016
40
5.1209294
50
269.4481726
51
284.725559
0
ARC
8
front_labelLayer
10
93.0527605
20
65.9249232
40
3.5638005
50
284.566234
51
322.6333791
0
ARC
8
front_labelLayer
10
92.1049302
20
66.6096874
40
4.7327999
50
323.0089323
51
342.6390543
0
ARC
8
front_labelLayer
10
89.3939165
20
67.4957229
40
7.584784
50
342.3615852
51
353.7537485
0
ARC
8
front_labelLayer
10
85.3943223
20
67.9778223
40
11.6131714
50
353.5363
51
0.2014183
0
ARC
8
front_labelLayer
10
86.007135
20
68.0747943
40
11.0004301
50
359.7075566
51
7.8972827
0
ARC
8
front_labelLayer
10
90.0357976
20
68.6523443
40
6.9306464
50
7.7439783
51
20.069033
0
ARC
8
front_labelLayer
10
92.2807135
20
69.4761453
40
4.5393544
50
20.0257137
51
37.4350375
0
ARC
8
front_labelLayer
10
93.0255704
20
70.0046833
40
3.6267789
50
37.9577672
51
80.4006152
0
ARC
8
front_labelLayer
10
92.6022962
20
68.1160693
40
5.5604757
50
79.3453567
51
90.3174907
0
ARC
8
front_labelLayer
10
92.5239196
20
68.4297771
40
5.2468982
50
89.4805882
51
103.8805021
0
ARC
8
front_labelLayer
10
92.0830451
20
70.108626
40
3.5114007
50
103.4685233
51
142.3118868
0
ARC
8
front_labelLayer
10
92.9401388
20
69.5058562
40
4.5584154
50
142.9025645
51
162.3749634
0
ARC
8
front_labelLayer
10
95.6408456
20
68.6058516
40
7.404964
50
162.06531
51
173.1674939
0
ARC
8
front_labelLayer
10
99.8519747
20
68.0687438
40
11.6501295
50
173.0086082
51
180.2463776
0
LINE
8
front_labelLayer
10
115.3222656
20
60.727241
11
113.1175781
21
60.727241
0
LINE
8
front_labelLayer
10
113.1175781
20
60.727241
11
113.1175781
21
70.1436473
0
LINE
8
front_labelLayer
10
105.3613281
20
68.3639598
11
105.3613281
21
60.727241
0
LINE
8
front_labelLayer
10
105.3613281
20
60.727241
11
103.1566406
21
60.727241
0
LINE
8
front_labelLayer
10
103.1566406
20
60.727241
11
103.1566406
21
75.283491
0
LINE
8
front_labelLayer
10
103.1566406
20
75.283491
11
104.9496094
21
75.283491
0
LINE
8
front_labelLayer
10
104.9496094
20
75.283491
11
105.3082031
21
73.2913035
0
LINE
8
front_labelLayer
10
105.3082031
20
73.2913035
11
105.4144531
21
73.2913035
0
LINE
8
front_labelLayer
10
115.3222656
20
70.2233348
11
115.3222656
21
60.727241
0
ARC
8
front_labelLayer
10
106.8855776
20
70.1793867
40
6.232103
50
359.6714219
51
8.6877256
0
ARC
8
front_labelLayer
10
109.1953784
20
70.5457063
40
3.8934945
50
8.4931344
51
22.6579945
0
ARC
8
front_labelLayer
10
110.3689088
20
71.0333891
40
2.6226673
50
22.7024471
51
42.341962
0
ARC
8
front_labelLayer
10
110.5008214
20
71.0927293
40
2.4856041
50
43.3790785
51
71.538618
0
ARC
8
front_labelLayer
10
110.0075423
20
69.714383
40
3.9493464
50
71.0827965
51
84.369131
0
ARC
8
front_labelLayer
10
109.7861131
20
67.8317259
40
5.8447542
50
84.0197896
51
90.1510634
0
ARC
8
front_labelLayer
10
109.7233401
20
67.0040632
40
6.6725647
50
89.593301
51
100.3717963
0
ARC
8
front_labelLayer
10
109.2517968
20
69.478095
40
4.1541046
50
100.1176521
51
118.1602546
0
ARC
8
front_labelLayer
10
108.7765972
20
70.4099228
40
3.1083807
50
118.5439414
51
139.1926753
0
ARC
8
front_labelLayer
10
109.190943
20
70.1318926
40
3.6042063
50
140.1519074
51
160.3146427
0
ARC
8
front_labelLayer
10
111.6930412
20
69.1947128
40
6.2758917
50
159.9534357
51
171.380118
0
ARC
8
front_labelLayer
10
115.7803052
20
68.5377
40
10.4155255
50
171.1765876
51
178.321748
0
ARC
8
front_labelLayer
10
119.484964
20
68.3697971
40
14.123637
50
178.081049
51
180.0236806
0
ARC
8
front_labelLayer
10
109.1859067
20
70.9027168
40
4.4642142
50
116.9442858
51
147.6525622
0
ARC
8
front_labelLayer
10
109.6506373
20
70.1253997
40
5.3680911
50
115.8071743
51
117.606713
0
ARC
8
front_labelLayer
10
109.8881266
20
69.5716421
40
5.9700712
50
94.322665
51
115.5454419
0
ARC
8
front_labelLayer
10
110.0310191
20
68.3301688
40
7.218949
50
89.9578634
51
94.7108775
0
ARC
8
front_labelLayer
10
110.090083
20
66.8448074
40
8.7044746
50
80.5585355
51
90.3538349
0
ARC
8
front_labelLayer
10
110.6340583
20
69.9957183
40
5.5070485
50
65.1094148
51
80.7638229
0
ARC
8
front_labelLayer
10
111.2699432
20
71.404181
40
3.9618102
50
46.5584405
51
64.8782562
0
ARC
8
front_labelLayer
10
111.3208326
20
71.5508918
40
3.8208295
50
19.3848794
51
45.5997113
0
ARC
8
front_labelLayer
10
109.1103523
20
70.7214819
40
6.1814814
50
6.9633776
51
19.836333
0
ARC
8
front_labelLayer
10
105.7011146
20
70.2631085
40
9.621233
50
359.7631413
51
7.2115515
0
LINE
8
front_labelLayer
10
126.5449219
20
62.5467723
11
126.5449219
21
60.8600535
0
LINE
8
front_labelLayer
10
120.0105469
20
64.9108348
11
120.0105469
21
73.5702098
0
LINE
8
front_labelLayer
10
120.0105469
20
73.5702098
11
117.9253906
21
73.5702098
0
LINE
8
front_labelLayer
10
117.9253906
20
73.5702098
11
117.9253906
21
74.6327098
0
LINE
8
front_labelLayer
10
117.9253906
20
74.6327098
11
120.0105469
21
75.549116
0
LINE
8
front_labelLayer
10
120.0105469
20
75.549116
11
120.9402344
21
78.6569285
0
LINE
8
front_labelLayer
10
120.9402344
20
78.6569285
11
122.2152344
21
78.6569285
0
LINE
8
front_labelLayer
10
122.2152344
20
78.6569285
11
122.2152344
21
75.283491
0
LINE
8
front_labelLayer
10
122.2152344
20
75.283491
11
126.4386719
21
75.283491
0
LINE
8
front_labelLayer
10
126.4386719
20
75.283491
11
126.4386719
21
73.5702098
0
LINE
8
front_labelLayer
10
126.4386719
20
73.5702098
11
122.2152344
21
73.5702098
0
LINE
8
front_labelLayer
10
122.2152344
20
73.5702098
11
122.2152344
21
65.0038035
0
ARC
8
front_labelLayer
10
124.5678538
20
69.5216266
40
7.2404951
50
269.8803562
51
278.3028341
0
ARC
8
front_labelLayer
10
124.6366803
20
68.9591186
40
6.673957
50
278.4155027
51
279.0080262
0
ARC
8
front_labelLayer
10
123.8244933
20
74.1476811
40
11.9256968
50
278.9589346
51
280.5104799
0
ARC
8
front_labelLayer
10
124.5985706
20
69.9943157
40
7.7008156
50
280.4847981
51
282.6268004
0
ARC
8
front_labelLayer
10
125.2776572
20
66.9773204
40
4.6083403
50
282.5876567
51
285.5795458
0
ARC
8
front_labelLayer
10
125.6187692
20
65.7229246
40
3.308429
50
285.7236584
51
286.2564618
0
ARC
8
front_labelLayer
10
125.6180043
20
62.8205387
40
2.168566
50
287.9888713
51
295.3047902
0
ARC
8
front_labelLayer
10
125.09496
20
64.4030014
40
3.8352153
50
283.3069812
51
288.1197474
0
ARC
8
front_labelLayer
10
124.5424875
20
66.7075236
40
6.2050287
50
280.0069418
51
283.3735669
0
ARC
8
front_labelLayer
10
124.1729517
20
68.7128402
40
8.2440657
50
279.1861996
51
280.1143542
0
ARC
8
front_labelLayer
10
123.9458327
20
70.004691
40
9.5556232
50
275.526017
51
279.2939522
0
ARC
8
front_labelLayer
10
124.2015404
20
67.3338084
40
6.8725299
50
270.8932833
51
275.5483652
0
ARC
8
front_labelLayer
10
124.233689
20
66.1108432
40
5.6492272
50
270.0029954
51
270.7606368
0
ARC
8
front_labelLayer
10
124.1450185
20
66.2192533
40
5.7583246
50
253.7848045
51
270.8852527
0
ARC
8
front_labelLayer
10
123.4628105
20
63.8926612
40
3.3337856
50
190.3817643
51
253.8772421
0
ARC
8
front_labelLayer
10
126.9400205
20
64.8328362
40
6.9299126
50
179.3551024
51
192.8477537
0
ARC
8
front_labelLayer
10
126.6546644
20
64.9760376
40
4.4395169
50
179.6416552
51
189.7505722
0
ARC
8
front_labelLayer
10
125.087424
20
64.6965023
40
2.847592
50
189.5479464
51
205.7873598
0
ARC
8
front_labelLayer
10
124.4433602
20
64.3995053
40
2.1385022
50
206.1294524
51
221.4083901
0
ARC
8
front_labelLayer
10
124.3711407
20
64.3447063
40
2.0481022
50
221.5949149
51
262.3505202
0
ARC
8
front_labelLayer
10
124.5428962
20
65.2279475
40
2.9468166
50
261.3266466
51
270.1912872
0
LINE
8
left_outsideCutPath
10
197
20
139
11
197
21
107
0
LINE
8
left_outsideCutPath
10
197
20
107
11
194
21
107
0
LINE
8
left_outsideCutPath
10
194
20
107
11
194
21
83
0
LINE
8
left_outsideCutPath
10
194
20
83
11
197
21
83
0
LINE
8
left_outsideCutPath
10
197
20
83
11
197
21
59
0
LINE
8
left_outsideCutPath
10
197
20
59
11
194
21
59
0
LINE
8
left_outsideCutPath
10
194
20
59
11
194
21
35
0
LINE
8
left_outsideCutPath
10
194
20
35
11
197
21
35
0
LINE
8
left_outsideCutPath
10
197
20
35
11
197
21
11
0
LINE
8
left_outsideCutPath
10
197
20
11
11
197
21
3
0
LINE
8
left_outsideCutPath
10
197
20
3
11
212
21
3
0
LINE
8
left_outsideCutPath
10
212
20
3
11
212
21
6
0
LINE
8
left_outsideCutPath
10
212
20
6
11
236
21
6
0
LINE
8
left_outsideCutPath
10
236
20
6
11
236
21
3
0
LINE
8
left_outsideCutPath
10
236
20
3
11
260
21
3
0
LINE
8
left_outsideCutPath
10
260
20
3
11
260
21
6
0
LINE
8
left_outsideCutPath
10
260
20
6
11
284
21
6
0
LINE
8
left_outsideCutPath
10
284
20
6
11
284
21
3
0
LINE
8
left_outsideCutPath
10
284
20
3
11
308
21
3
0
LINE
8
left_outsideCutPath
10
308
20
3
11
308
21
6
0
LINE
8
left_outsideCutPath
10
308
20
6
11
332
21
6
0
LINE
8
left_outsideCutPath
10
332
20
6
11
332
21
3
0
LINE
8
left_outsideCutPath
10
332
20
3
11
347
21
3
0
LINE
8
left_outsideCutPath
10
347
20
3
11
347
21
35
0
LINE
8
left_outsideCutPath
10
347
20
35
11
350
21
35
0
LINE
8
left_outsideCutPath
10
350
20
35
11
350
21
59
0
LINE
8
left_outsideCutPath
10
350
20
59
11
347
21
59
0
LINE
8
left_outsideCutPath
10
347
20
59
11
347
21
83
0
LINE
8
left_outsideCutPath
10
347
20
83
11
350
21
83
0
LINE
8
left_outsideCutPath
10
350
20
83
11
350
21
107
0
LINE
8
left_outsideCutPath
10
350
20
107
11
347
21
107
0
LINE
8
left_outsideCutPath
10
347
20
107
11
347
21
131
0
LINE
8
left_outsideCutPath
10
347
20
131
11
347
21
139
0
LINE
8
left_outsideCutPath
10
347
20
139
11
332
21
139
0
LINE
8
left_outsideCutPath
10
332
20
139
11
332
21
136
0
LINE
8
left_outsideCutPath
10
332
20
136
11
308
21
136
0
LINE
8
left_outsideCutPath
10
308
20
136
11
308
21
139
0
LINE
8
left_outsideCutPath
10
308
20
139
11
284
21
139
0
LINE
8
left_outsideCutPath
10
284
20
139
11
284
21
136
0
LINE
8
left_outsideCutPath
10
284
20
136
11
260
21
136
0
LINE
8
left_outsideCutPath
10
260
20
136
11
260
21
139
0
LINE
8
left_outsideCutPath
10
260
20
139
11
236
21
139
0
LINE
8
left_outsideCutPath
10
236
20
139
11
236
21
136
0
LINE
8
left_outsideCutPath
10
236
20
136
11
212
21
136
0
LINE
8
left_outsideCutPath
10
212
20
136
11
212
21
139
0
LINE
8
left_outsideCutPath
10
212
20
139
11
197
21
139
0
LINE
8
left_labelLayer
10
255.1792969
20
81.392866
11
255.1792969
21
60.727241
0
LINE
8
left_labelLayer
10
255.1792969
20
60.727241
11
252.9746094
21
60.727241
0
LINE
8
left_labelLayer
10
252.9746094
20
60.727241
11
252.9746094
21
81.392866
0
LINE
8
left_labelLayer
10
252.9746094
20
81.392866
11
255.1792969
21
81.392866
0
LINE
8
left_labelLayer
10
271.3558594
20
69.0014598
11
271.3558594
21
67.6069285
0
LINE
8
left_labelLayer
10
271.3558594
20
67.6069285
11
261.3285156
21
67.6069285
0
LINE
8
left_labelLayer
10
270.7316406
20
63.3702098
11
270.7316406
21
61.4045848
0
LINE
8
left_labelLayer
10
261.3816406
20
69.3998973
11
268.9917969
21
69.3998973
0
ARC
8
left_labelLayer
10
265.9310239
20
69.0286193
40
8.56731
50
256.0087832
51
270.48481
0
ARC
8
left_labelLayer
10
265.3071548
20
66.6066354
40
6.0663772
50
223.5465773
51
256.1956967
0
ARC
8
left_labelLayer
10
265.6513142
20
66.8567748
40
6.488401
50
194.0877252
51
223.0538128
0
ARC
8
left_labelLayer
10
268.8047543
20
67.7191244
40
9.757144
50
181.3574535
51
194.4919913
0
ARC
8
left_labelLayer
10
271.6378514
20
67.8833603
40
12.593711
50
179.9887424
51
181.7991026
0
ARC
8
left_labelLayer
10
270.6206473
20
67.9634912
40
11.5767671
50
168.9539246
51
180.3843402
0
ARC
8
left_labelLayer
10
266.8397311
20
68.73335
40
7.7184578
50
149.4071031
51
169.1853721
0
ARC
8
left_labelLayer
10
265.7862995
20
69.289936
40
6.5286416
50
140.1056018
51
148.9067219
0
ARC
8
left_labelLayer
10
265.1391106
20
69.8866148
40
5.649567
50
92.4762697
51
140.5386335
0
ARC
8
left_labelLayer
10
265.427497
20
67.7554687
40
7.7936488
50
89.963794
51
93.9176263
0
ARC
8
left_labelLayer
10
265.4963123
20
68.8325827
40
6.7168372
50
74.2125838
51
90.5450043
0
ARC
8
left_labelLayer
10
265.917009
20
70.3826095
40
5.1108504
50
41.2064634
51
74.02327
0
ARC
8
left_labelLayer
10
265.1202923
20
69.6931088
40
6.1644812
50
11.5994233
51
41.1496073
0
ARC
8
left_labelLayer
10
262.3827876
20
69.0617887
40
8.9732745
50
359.6147875
51
12.0336318
0
ARC
8
left_labelLayer
10
270.175557
20
67.783707
40
8.8488074
50
181.144712
51
190.8007079
0
ARC
8
left_labelLayer
10
267.0537902
20
67.1680066
40
5.6669993
50
190.600576
51
206.0275318
0
ARC
8
left_labelLayer
10
265.6726151
20
66.5150472
40
4.1394231
50
206.2950234
51
222.555805
0
ARC
8
left_labelLayer
10
265.550234
20
66.4509718
40
4.0060981
50
223.064513
51
258.1401316
0
ARC
8
left_labelLayer
10
266.0374437
20
68.4571117
40
6.0698868
50
257.5311888
51
270.4319435
0
ARC
8
left_labelLayer
10
266.0428824
20
74.0314997
40
11.6441722
50
270.1984006
51
292.2090376
0
ARC
8
left_labelLayer
10
265.4837674
20
75.6372495
40
13.34243
50
291.825483
51
293.1613719
0
ARC
8
left_labelLayer
10
265.4569159
20
73.5436419
40
13.2355366
50
287.9023069
51
293.4861546
0
ARC
8
left_labelLayer
10
266.4170324
20
70.5813532
40
10.1215414
50
281.9935953
51
287.8851148
0
ARC
8
left_labelLayer
10
266.6497375
20
69.7449765
40
9.2552219
50
275.9054457
51
281.6603868
0
ARC
8
left_labelLayer
10
266.1839234
20
74.0929035
40
13.6280103
50
271.9119559
51
275.9726991
0
ARC
8
left_labelLayer
10
266.0138861
20
78.4238702
40
17.9622571
50
269.9669205
51
271.9931216
0
ARC
8
left_labelLayer
10
265.3635525
20
69.3572799
40
4.3459483
50
89.4422293
51
106.2089734
0
ARC
8
left_labelLayer
10
265.1020966
20
70.3105875
40
3.3575853
50
106.4657056
51
137.9176457
0
ARC
8
left_labelLayer
10
265.8517022
20
69.6523079
40
4.355129
50
138.0994711
51
160.5866256
0
ARC
8
left_labelLayer
10
267.7785639
20
68.9434491
40
6.4081121
50
160.3353433
51
172.5315189
0
ARC
8
left_labelLayer
10
269.6760951
20
68.6394255
40
8.3292432
50
172.1545419
51
174.7615187
0
ARC
8
left_labelLayer
10
261.4791358
20
69.4425762
40
7.5127823
50
359.6745098
51
8.9224561
0
ARC
8
left_labelLayer
10
264.163626
20
69.8799742
40
4.7929632
50
8.7342118
51
23.2772022
0
ARC
8
left_labelLayer
10
265.4380561
20
70.4149481
40
3.4108778
50
23.4821428
51
39.7072212
0
ARC
8
left_labelLayer
10
265.7510981
20
70.6492056
40
3.0204545
50
40.0822994
51
80.6243167
0
ARC
8
left_labelLayer
10
265.428872
20
69.1721255
40
4.5309553
50
79.646848
51
90.2910056
0
LINE
8
left_labelLayer
10
281.6753906
20
75.283491
11
281.6753906
21
73.5702098
0
LINE
8
left_labelLayer
10
281.6753906
20
73.5702098
11
277.9699219
21
73.5702098
0
LINE
8
left_labelLayer
10
277.9699219
20
73.5702098
11
277.9699219
21
60.727241
0
LINE
8
left_labelLayer
10
277.9699219
20
60.727241
11
275.7652344
21
60.727241
0
LINE
8
left_labelLayer
10
275.7652344
20
60.727241
11
275.7652344
21
73.5702098
0
LINE
8
left_labelLayer
10
275.7652344
20
73.5702098
11
273.1621094
21
73.5702098
0
LINE
8
left_labelLayer
10
273.1621094
20
73.5702098
11
273.1621094
21
74.5663035
0
LINE
8
left_labelLayer
10
273.1621094
20
74.5663035
11
275.7652344
21
75.3631785
0
LINE
8
left_labelLayer
10
275.7652344
20
75.3631785
11
275.7652344
21
76.1733348
0
LINE
8
left_labelLayer
10
283.1628906
20
81.074116
11
282.5917969
21
79.3077098
0
LINE
8
left_labelLayer
10
277.9699219
20
76.2264598
11
277.9699219
21
75.283491
0
LINE
8
left_labelLayer
10
277.9699219
20
75.283491
11
281.6753906
21
75.283491
0
ARC
8
left_labelLayer
10
284.7000554
20
76.276055
40
8.9354115
50
167.5775928
51
180.6586788
0
ARC
8
left_labelLayer
10
280.4983346
20
77.255654
40
4.6216334
50
141.7433818
51
168.2322105
0
ARC
8
left_labelLayer
10
279.8142094
20
77.6127158
40
3.8659939
50
98.2551517
51
139.620331
0
ARC
8
left_labelLayer
10
280.4148841
20
74.8378312
40
6.7012401
50
89.6696973
51
99.9314384
0
ARC
8
left_labelLayer
10
280.4165572
20
74.439438
40
7.0996179
50
81.5640971
51
89.7017343
0
ARC
8
left_labelLayer
10
279.917444
20
70.9573509
40
10.6172662
50
75.9739895
51
81.6564804
0
ARC
8
left_labelLayer
10
279.0609401
20
67.4047624
40
14.271553
50
73.2963552
51
76.0946142
0
ARC
8
left_labelLayer
10
279.2766297
20
69.1280657
40
10.7058622
50
71.9613155
51
76.5918256
0
ARC
8
left_labelLayer
10
280.1071907
20
72.6513689
40
7.0860041
50
76.5183669
51
83.0216667
0
ARC
8
left_labelLayer
10
280.3965182
20
74.9780825
40
4.741377
50
83.0760763
51
89.7927113
0
ARC
8
left_labelLayer
10
280.3869945
20
76.7462926
40
2.9732556
50
89.4859107
51
103.4197605
0
ARC
8
left_labelLayer
10
280.1189343
20
77.7761489
40
1.90943
50
102.7677428
51
144.3380381
0
ARC
8
left_labelLayer
10
280.6589651
20
77.4286878
40
2.5509674
50
145.0688534
51
162.1801701
0
ARC
8
left_labelLayer
10
282.5105332
20
76.8057261
40
4.5044231
50
161.843747
51
171.7847169
0
ARC
8
left_labelLayer
10
285.5304901
20
76.3521345
40
7.5582248
50
171.6527666
51
178.4383589
0
ARC
8
left_labelLayer
10
288.3789088
20
76.2306753
40
10.4089876
50
178.1973301
51
180.0232043
0
LINE
8
left_labelLayer
10
291.0253906
20
62.5467723
11
291.0253906
21
60.8600535
0
LINE
8
left_labelLayer
10
284.4910156
20
64.9108348
11
284.4910156
21
73.5702098
0
LINE
8
left_labelLayer
10
284.4910156
20
73.5702098
11
282.4058594
21
73.5702098
0
LINE
8
left_labelLayer
10
282.4058594
20
73.5702098
11
282.4058594
21
74.6327098
0
LINE
8
left_labelLayer
10
282.4058594
20
74.6327098
11
284.4910156
21
75.549116
0
LINE
8
left_labelLayer
10
284.4910156
20
75.549116
11
285.4207031
21
78.6569285
0
LINE
8
left_labelLayer
10
285.4207031
20
78.6569285
11
286.6957031
21
78.6569285
0
LINE
8
left_labelLayer
10
286.6957031
20
78.6569285
11
286.6957031
21
75.283491
0
LINE
8
left_labelLayer
10
286.6957031
20
75.283491
11
290.9191406
21
75.283491
0
LINE
8
left_labelLayer
10
290.9191406
20
75.283491
11
290.9191406
21
73.5702098
0
LINE
8
left_labelLayer
10
290.9191406
20
73.5702098
11
286.6957031
21
73.5702098
0
LINE
8
left_labelLayer
10
286.6957031
20
73.5702098
11
286.6957031
21
65.0038035
0
ARC
8
left_labelLayer
10
289.0483226
20
69.5216266
40
7.2404951
50
269.8803562
51
278.3028341
0
ARC
8
left_labelLayer
10
289.1171491
20
68.9591186
40
6.673957
50
278.4155027
51
279.0080262
0
ARC
8
left_labelLayer
10
288.3049621
20
74.1476811
40
11.9256968
50
278.9589346
51
280.5104799
0
ARC
8
left_labelLayer
10
289.0790393
20
69.9943157
40
7.7008156
50
280.4847981
51
282.6268004
0
ARC
8
left_labelLayer
10
289.758126
20
66.9773204
40
4.6083403
50
282.5876567
51
285.5795458
0
ARC
8
left_labelLayer
10
290.099238
20
65.7229246
40
3.308429
50
285.7236584
51
286.2564618
0
ARC
8
left_labelLayer
10
290.098473
20
62.8205387
40
2.168566
50
287.9888713
51
295.3047902
0
ARC
8
left_labelLayer
10
289.5754288
20
64.4030014
40
3.8352153
50
283.3069812
51
288.1197474
0
ARC
8
left_labelLayer
10
289.0229563
20
66.7075236
40
6.2050287
50
280.0069418
51
283.3735669
0
ARC
8
left_labelLayer
10
288.6534204
20
68.7128402
40
8.2440657
50
279.1861996
51
280.1143542
0
ARC
8
left_labelLayer
10
288.4263014
20
70.004691
40
9.5556232
50
275.526017
51
279.2939522
0
ARC
8
left_labelLayer
10
288.6820091
20
67.3338084
40
6.8725299
50
270.8932833
51
275.5483652
0
ARC
8
left_labelLayer
10
288.7141578
20
66.1108432
40
5.6492272
50
270.0029954
51
270.7606368
0
ARC
8
left_labelLayer
10
288.6254872
20
66.2192533
40
5.7583246
50
253.7848045
51
270.8852527
0
ARC
8
left_labelLayer
10
287.9432792
20
63.8926612
40
3.3337856
50
190.3817643
51
253.8772421
0
ARC
8
left_labelLayer
10
291.4204892
20
64.8328362
40
6.9299126
50
179.3551024
51
192.8477537
0
ARC
8
left_labelLayer
10
291.1351332
20
64.9760376
40
4.4395169
50
179.6416552
51
189.7505722
0
ARC
8
left_labelLayer
10
289.5678928
20
64.6965023
40
2.847592
50
189.5479464
51
205.7873598
0
ARC
8
left_labelLayer
10
288.923829
20
64.3995053
40
2.1385022
50
206.1294524
51
221.4083901
0
ARC
8
left_labelLayer
10
288.8516095
20
64.3447063
40
2.0481022
50
221.5949149
51
262.3505202
0
ARC
8
left_labelLayer
10
289.0233649
20
65.2279475
40
2.9468166
50
261.3266466
51
270.1912872
0
LINE
8
top_outsideCutPath
10
356
20
156
11
356
21
141
0
LINE
8
top_outsideCutPath
10
356
20
141
11
353
21
141
0
LINE
8
top_outsideCutPath
10
353
20
141
11
353
21
117
0
LINE
8
top_outsideCutPath
10
353
20
117
11
356
21
117
0
LINE
8
top_outsideCutPath
10
356
20
117
11
356
21
93
0
LINE
8
top_outsideCutPath
10
356
20
93
11
353
21
93
0
LINE
8
top_outsideCutPath
10
353
20
93
11
353
21
69
0
LINE
8
top_outsideCutPath
10
353
20
69
11
356
21
69
0
LINE
8
top_outsideCutPath
10
356
20
69
11
356
21
45
0
LINE
8
top_outsideCutPath
10
356
20
45
11
353
21
45
0
LINE
8
top_outsideCutPath
10
353
20
45
11
353
21
21
0
LINE
8
top_outsideCutPath
10
353
20
21
11
356
21
21
0
LINE
8
top_outsideCutPath
10
356
20
21
11
356
21
6
0
LINE
8
top_outsideCutPath
10
356
20
6
11
388.5
21
6
0
LINE
8
top_outsideCutPath
10
388.5
20
6
11
388.5
21
3
0
LINE
8
top_outsideCutPath
10
388.5
20
3
11
412.5
21
3
0
LINE
8
top_outsideCutPath
10
412.5
20
3
11
412.5
21
6
0
LINE
8
top_outsideCutPath
10
412.5
20
6
11
436.5
21
6
0
LINE
8
top_outsideCutPath
10
436.5
20
6
11
436.5
21
3
0
LINE
8
top_outsideCutPath
10
436.5
20
3
11
460.5
21
3
0
LINE
8
top_outsideCutPath
10
460.5
20
3
11
460.5
21
6
0
LINE
8
top_outsideCutPath
10
460.5
20
6
11
484.5
21
6
0
LINE
8
top_outsideCutPath
10
484.5
20
6
11
484.5
21
3
0
LINE
8
top_outsideCutPath
10
484.5
20
3
11
508.5
21
3
0
LINE
8
top_outsideCutPath
10
508.5
20
3
11
508.5
21
6
0
LINE
8
top_outsideCutPath
10
508.5
20
6
11
532.5
21
6
0
LINE
8
top_outsideCutPath
10
532.5
20
6
11
541
21
6
0
LINE
8
top_outsideCutPath
10
541
20
6
11
541
21
21
0
LINE
8
top_outsideCutPath
10
541
20
21
11
544
21
21
0
LINE
8
top_outsideCutPath
10
544
20
21
11
544
21
45
0
LINE
8
top_outsideCutPath
10
544
20
45
11
541
21
45
0
LINE
8
top_outsideCutPath
10
541
20
45
11
541
21
69
0
LINE
8
top_outsideCutPath
10
541
20
69
11
544
21
69
0
LINE
8
top_outsideCutPath
10
544
20
69
11
544
21
93
0
LINE
8
top_outsideCutPath
10
544
20
93
11
541
21
93
0
LINE
8
top_outsideCutPath
10
541
20
93
11
541
21
117
0
LINE
8
top_outsideCutPath
10
541
20
117
11
544
21
117
0
LINE
8
top_outsideCutPath
10
544
20
117
11
544
21
141
0
LINE
8
top_outsideCutPath
10
544
20
141
11
541
21
141
0
LINE
8
top_outsideCutPath
10
541
20
141
11
541
21
156
0
LINE
8
top_outsideCutPath
10
541
20
156
11
508.5
21
156
0
LINE
8
top_outsideCutPath
10
508.5
20
156
11
508.5
21
159
0
LINE
8
top_outsideCutPath
10
508.5
20
159
11
484.5
21
159
0
LINE
8
top_outsideCutPath
10
484.5
20
159
11
484.5
21
156
0
LINE
8
top_outsideCutPath
10
484.5
20
156
11
460.5
21
156
0
LINE
8
top_outsideCutPath
10
460.5
20
156
11
460.5
21
159
0
LINE
8
top_outsideCutPath
10
460.5
20
159
11
436.5
21
159
0
LINE
8
top_outsideCutPath
10
436.5
20
159
11
436.5
21
156
0
LINE
8
top_outsideCutPath
10
436.5
20
156
11
412.5
21
156
0
LINE
8
top_outsideCutPath
10
412.5
20
156
11
412.5
21
159
0
LINE
8
top_outsideCutPath
10
412.5
20
159
11
388.5
21
159
0
LINE
8
top_outsideCutPath
10
388.5
20
159
11
388.5
21
156
0
LINE
8
top_outsideCutPath
10
388.5
20
156
11
364.5
21
156
0
LINE
8
top_outsideCutPath
10
364.5
20
156
11
356
21
156
0
LINE
8
top_labelLayer
10
435.0022147
20
76.5515625
11
435.0022147
21
74.6167969
0
LINE
8
top_labelLayer
10
427.5069022
20
79.2632813
11
427.5069022
21
89.1960938
0
LINE
8
top_labelLayer
10
427.5069022
20
89.1960938
11
425.1151053
21
89.1960938
0
LINE
8
top_labelLayer
10
425.1151053
20
89.1960938
11
425.1151053
21
90.4148438
0
LINE
8
top_labelLayer
10
425.1151053
20
90.4148438
11
427.5069022
21
91.4660156
0
LINE
8
top_labelLayer
10
427.5069022
20
91.4660156
11
428.5733085
21
95.0308594
0
LINE
8
top_labelLayer
10
428.5733085
20
95.0308594
11
430.0358085
21
95.0308594
0
LINE
8
top_labelLayer
10
430.0358085
20
95.0308594
11
430.0358085
21
91.1613281
0
LINE
8
top_labelLayer
10
430.0358085
20
91.1613281
11
434.8803397
21
91.1613281
0
LINE
8
top_labelLayer
10
434.8803397
20
91.1613281
11
434.8803397
21
89.1960938
0
LINE
8
top_labelLayer
10
434.8803397
20
89.1960938
11
430.0358085
21
89.1960938
0
LINE
8
top_labelLayer
10
430.0358085
20
89.1960938
11
430.0358085
21
79.3699219
0
ARC
8
top_labelLayer
10
432.7344027
20
84.5521302
40
8.3052733
50
269.8803467
51
278.3028251
0
ARC
8
top_labelLayer
10
432.8133585
20
83.9069122
40
7.6554311
50
278.415423
51
279.0079457
0
ARC
8
top_labelLayer
10
431.881653
20
89.8588779
40
13.6798724
50
278.9589702
51
280.5104705
0
ARC
8
top_labelLayer
10
432.7696056
20
85.0944811
40
8.8334395
50
280.4848127
51
282.6267784
0
ARC
8
top_labelLayer
10
433.5485646
20
81.6337645
40
5.2861427
50
282.587657
51
285.5794866
0
ARC
8
top_labelLayer
10
433.9395436
20
80.1959689
40
3.7961782
50
285.7235036
51
286.2561365
0
ARC
8
top_labelLayer
10
433.9389951
20
76.8655663
40
2.4874484
50
287.9888231
51
295.3048134
0
ARC
8
top_labelLayer
10
433.3390644
20
78.6806215
40
4.3990669
50
283.3068929
51
288.119824
0
ARC
8
top_labelLayer
10
432.7052789
20
81.3243154
40
7.1176619
50
280.0069698
51
283.3735339
0
ARC
8
top_labelLayer
10
432.2811324
20
83.6261331
40
9.4581809
50
279.1862802
51
280.1142629
0
ARC
8
top_labelLayer
10
432.0208902
20
85.1063556
40
10.9609846
50
275.5260404
51
279.2939334
0
ARC
8
top_labelLayer
10
432.3142247
20
82.0424611
40
7.8830825
50
270.8932496
51
275.5483986
0
ARC
8
top_labelLayer
10
432.3510619
20
80.6447422
40
6.4849765
50
270.0032824
51
270.7603419
0
ARC
8
top_labelLayer
10
432.2493843
20
80.76411
40
6.6051328
50
253.7847943
51
270.8852535
0
ARC
8
top_labelLayer
10
431.4668522
20
78.0953768
40
3.8240489
50
190.38177
51
253.8772357
0
ARC
8
top_labelLayer
10
435.4554079
20
79.1738106
40
7.949009
50
179.3550896
51
192.847755
0
ARC
8
top_labelLayer
10
435.1280943
20
79.3380729
40
5.0923855
50
179.6416566
51
189.7505766
0
ARC
8
top_labelLayer
10
433.330383
20
79.0174314
40
3.2663599
50
189.5479696
51
205.7873606
0
ARC
8
top_labelLayer
10
432.5915935
20
78.6767522
40
2.4529803
50
206.1294319
51
221.4084164
0
ARC
8
top_labelLayer
10
432.5087603
20
78.6138993
40
2.3492945
50
221.5949194
51
262.3505107
0
ARC
8
top_labelLayer
10
432.7057708
20
79.6270074
40
3.380151
50
261.3266383
51
270.1913339
0
ARC
8
top_labelLayer
10
439.687715
20
82.7400616
40
13.0628434
50
349.1761974
51
0.3862636
0
ARC
8
top_labelLayer
10
444.0856685
20
81.8633233
40
8.5785627
50
330.2507057
51
349.4116416
0
ARC
8
top_labelLayer
10
445.4391421
20
81.1598395
40
7.0546599
50
318.1439708
51
329.7566299
0
ARC
8
top_labelLayer
10
445.6834184
20
80.9640759
40
6.7421136
50
278.8959148
51
317.9979147
0
ARC
8
top_labelLayer
10
445.0539976
20
83.9796802
40
9.8200079
50
269.7502871
51
279.8033287
0
ARC
8
top_labelLayer
10
444.9519174
20
82.2805729
40
8.1210236
50
253.5436905
51
270.4182506
0
ARC
8
top_labelLayer
10
444.6815869
20
81.2348644
40
7.0416682
50
238.8115538
51
253.2428274
0
ARC
8
top_labelLayer
10
444.5943393
20
81.0594109
40
6.846411
50
207.7947045
51
238.675798
0
ARC
8
top_labelLayer
10
445.8462118
20
81.8261284
40
8.3119088
50
205.65602
51
208.4461447
0
ARC
8
top_labelLayer
10
446.8105357
20
82.2279321
40
9.3552911
50
188.9102471
51
205.3171473
0
ARC
8
top_labelLayer
10
450.0602393
20
82.7783274
40
12.6510914
50
179.7744699
51
189.0932889
0
ARC
8
top_labelLayer
10
450.5396234
20
82.9170614
40
13.1306786
50
169.244298
51
180.3880772
0
ARC
8
top_labelLayer
10
446.0805452
20
83.7984593
40
8.5855165
50
150.7111469
51
169.4695448
0
ARC
8
top_labelLayer
10
444.6570631
20
84.5294715
40
6.9866331
50
138.1759344
51
150.2287492
0
ARC
8
top_labelLayer
10
444.4202872
20
84.7111695
40
6.689062
50
99.1759357
51
137.9832737
0
ARC
8
top_labelLayer
10
445.0720052
20
81.6441168
40
9.8220057
50
89.7326277
51
100.0759852
0
ARC
8
top_labelLayer
10
445.2022623
20
82.968666
40
8.497769
50
73.522278
51
90.5692241
0
ARC
8
top_labelLayer
10
445.7006051
20
84.7792819
40
6.6202599
50
41.1445692
51
73.2133785
0
ARC
8
top_labelLayer
10
444.7493083
20
83.9616556
40
7.8746087
50
13.5014371
51
41.0703435
0
ARC
8
top_labelLayer
10
441.0739793
20
82.9998711
40
11.6731689
50
1.1277209
51
13.8800023
0
ARC
8
top_labelLayer
10
437.9079957
20
82.8302232
40
14.8422659
50
359.9919004
51
1.5419545
0
ARC
8
top_labelLayer
10
452.8357158
20
82.7624042
40
12.806326
50
179.7059626
51
187.9160817
0
ARC
8
top_labelLayer
10
448.1387621
20
82.0876906
40
8.0612355
50
187.7639244
51
200.0976793
0
ARC
8
top_labelLayer
10
445.5512126
20
81.1396088
40
5.3054651
50
200.0845765
51
216.9131713
0
ARC
8
top_labelLayer
10
444.6063414
20
80.4649259
40
4.1448742
50
217.3009601
51
261.7099078
0
ARC
8
top_labelLayer
10
445.044987
20
82.5580915
40
6.2808066
50
260.5033057
51
270.2476691
0
ARC
8
top_labelLayer
10
445.128711
20
82.1510643
40
5.873993
50
269.4481566
51
284.7255801
0
ARC
8
top_labelLayer
10
445.5937204
20
80.4264997
40
4.087888
50
284.5662301
51
322.6333831
0
ARC
8
top_labelLayer
10
444.5065023
20
81.2119657
40
5.4288006
50
323.0089309
51
342.6390505
0
ARC
8
top_labelLayer
10
441.3968266
20
82.2282965
40
8.7001771
50
342.3615753
51
353.75376
0
ARC
8
top_labelLayer
10
436.809009
20
82.781298
40
13.3210225
50
353.5363084
51
0.2014108
0
ARC
8
top_labelLayer
10
437.511918
20
82.8925262
40
12.6181955
50
359.7075706
51
7.8972609
0
ARC
8
top_labelLayer
10
442.133071
20
83.5550092
40
7.9498744
50
7.7439895
51
20.0690206
0
ARC
8
top_labelLayer
10
444.7081478
20
84.4999668
40
5.2068939
50
20.0256957
51
37.4350618
0
ARC
8
top_labelLayer
10
445.5625318
20
85.1062256
40
4.160128
50
37.9577668
51
80.4006221
0
ARC
8
top_labelLayer
10
445.0770108
20
82.9398899
40
6.3781768
50
79.3453297
51
90.3174913
0
ARC
8
top_labelLayer
10
444.9871091
20
83.2997109
40
6.0185051
50
89.4805967
51
103.8805004
0
ARC
8
top_labelLayer
10
444.4813996
20
85.2254533
40
4.0277835
50
103.4685264
51
142.3118866
0
ARC
8
top_labelLayer
10
445.4645375
20
84.5340414
40
5.2287715
50
142.902576
51
162.3749709
0
ARC
8
top_labelLayer
10
448.5624127
20
83.5016806
40
8.4939366
50
162.0653097
51
173.1674841
0
ARC
8
top_labelLayer
10
453.3928123
20
82.8855919
40
13.3633772
50
173.0086185
51
180.2463914
0
LINE
8
top_labelLayer
10
459.712371
20
76.6125
11
459.5295585
21
76.6125
0
LINE
8
top_labelLayer
10
459.712371
20
73.8398438
11
459.712371
21
66.9691406
0
LINE
8
top_labelLayer
10
459.712371
20
66.9691406
11
457.1834647
21
66.9691406
0
LINE
8
top_labelLayer
10
457.1834647
20
66.9691406
11
457.1834647
21
91.1613281
0
LINE
8
top_labelLayer
10
457.1834647
20
91.1613281
11
459.2401053
21
91.1613281
0
LINE
8
top_labelLayer
10
459.2401053
20
91.1613281
11
459.590496
21
88.8761719
0
LINE
8
top_labelLayer
10
459.590496
20
88.8761719
11
459.712371
21
88.8761719
0
LINE
8
top_labelLayer
10
459.712371
20
83.3917969
11
459.712371
21
82.828125
0
ARC
8
top_labelLayer
10
464.9103495
20
81.8303701
40
7.6707231
50
255.7755433
51
270.3185455
0
ARC
8
top_labelLayer
10
464.6914526
20
80.8578258
40
6.6742625
50
245.9801725
51
255.5455696
0
ARC
8
top_labelLayer
10
464.2674577
20
79.8718202
40
5.6010698
50
215.5850151
51
245.8361686
0
ARC
8
top_labelLayer
10
435.7856487
20
73.6120663
40
23.9327361
50
2.9503175
51
7.202091
0
ARC
8
top_labelLayer
10
439.6577942
20
73.8287048
40
20.0545798
50
0.031824
51
2.9016002
0
ARC
8
top_labelLayer
10
465.2830396
20
84.9638865
40
6.807226
50
132.3564986
51
144.9195991
0
ARC
8
top_labelLayer
10
464.2402382
20
86.1015515
40
5.2639519
50
115.4006197
51
132.311831
0
ARC
8
top_labelLayer
10
464.6470008
20
85.1113337
40
6.3331841
50
97.7066216
51
114.8821544
0
ARC
8
top_labelLayer
10
464.9310823
20
83.2689661
40
8.1970788
50
89.8468279
51
97.9474394
0
ARC
8
top_labelLayer
10
465.0312648
20
83.7146668
40
7.7517439
50
74.1923489
51
90.5785214
0
ARC
8
top_labelLayer
10
465.5676422
20
85.6645087
40
5.7295479
50
38.052342
51
74.0417328
0
ARC
8
top_labelLayer
10
464.0882177
20
84.5305935
40
7.5934654
50
16.3355987
51
37.9090544
0
ARC
8
top_labelLayer
10
460.2017274
20
83.333531
40
11.659883
50
4.5766595
51
16.6088735
0
ARC
8
top_labelLayer
10
455.4169547
20
82.8567687
40
16.4677067
50
359.9003405
51
4.9018049
0
ARC
8
top_labelLayer
10
457.0573358
20
82.7406449
40
14.8275588
50
350.6562813
51
0.3380372
0
ARC
8
top_labelLayer
10
462.2264675
20
81.8614312
40
9.5843059
50
335.8305896
51
350.8254904
0
ARC
8
top_labelLayer
10
464.5002692
20
80.8800252
40
7.1080945
50
321.3161455
51
335.5436182
0
ARC
8
top_labelLayer
10
465.3695601
20
80.171685
40
5.9867993
50
274.0640058
51
321.4081012
0
ARC
8
top_labelLayer
10
464.9645885
20
82.7369161
40
8.5771582
50
269.9225616
51
275.5481654
0
ARC
8
top_labelLayer
10
464.5352821
20
82.0313985
40
7.2867565
50
89.5904215
51
100.3501775
0
ARC
8
top_labelLayer
10
464.0156809
20
84.7610689
40
4.5081971
50
100.0867992
51
118.1918028
0
ARC
8
top_labelLayer
10
463.4833975
20
85.7991958
40
3.3418261
50
118.5569525
51
141.0243342
0
ARC
8
top_labelLayer
10
464.2945017
20
85.2270571
40
4.3327523
50
141.8890563
51
160.5973038
0
ARC
8
top_labelLayer
10
467.1450317
20
84.1811147
40
7.3689665
50
160.2895691
51
171.2452955
0
ARC
8
top_labelLayer
10
471.8318186
20
83.425452
40
12.1162092
50
171.0868398
51
178.3247547
0
ARC
8
top_labelLayer
10
475.8070363
20
83.2365528
40
16.095414
50
178.0662961
51
179.4473601
0
ARC
8
top_labelLayer
10
476.4332165
20
82.7628345
40
16.720973
50
179.7762763
51
185.707516
0
ARC
8
top_labelLayer
10
469.8406916
20
82.0835722
40
10.0935978
50
185.5924742
51
194.2050682
0
ARC
8
top_labelLayer
10
465.617634
20
80.9875417
40
5.7307673
50
193.9430366
51
208.0218423
0
ARC
8
top_labelLayer
10
463.9089532
20
80.1182855
40
3.8141784
50
208.5536223
51
217.5605546
0
ARC
8
top_labelLayer
10
463.769761
20
80.0603964
40
3.668757
50
218.1690487
51
253.8047221
0
ARC
8
top_labelLayer
10
464.4502441
20
82.1583929
40
5.8736904
50
253.1382408
51
266.8483177
0
ARC
8
top_labelLayer
10
464.6410603
20
84.4087101
40
8.1313694
50
266.3775773
51
270.0510722
0
ARC
8
top_labelLayer
10
464.7058919
20
80.5380682
40
4.2611135
50
269.2256977
51
292.0430273
0
ARC
8
top_labelLayer
10
464.7633848
20
80.1954332
40
3.92267
50
293.1429744
51
324.135388
0
ARC
8
top_labelLayer
10
463.9090045
20
80.9187821
40
5.0395806
50
323.1616054
51
325.0152582
0
ARC
8
top_labelLayer
10
462.9944747
20
81.4858243
40
6.1142697
50
325.5753884
51
344.150468
0
ARC
8
top_labelLayer
10
459.830489
20
82.4211324
40
9.4134793
50
343.9336189
51
355.1137458
0
ARC
8
top_labelLayer
10
455.7915316
20
82.8309699
40
13.4728207
50
354.8402192
51
0.1174759
0
ARC
8
top_labelLayer
10
456.5028573
20
82.9229992
40
12.7616293
50
359.7108383
51
7.8610393
0
ARC
8
top_labelLayer
10
461.1429854
20
83.5844359
40
8.0746668
50
7.7149647
51
19.8859618
0
ARC
8
top_labelLayer
10
463.6949321
20
84.5062088
40
5.3613487
50
19.8991453
51
35.8980109
0
ARC
8
top_labelLayer
10
464.8332189
20
85.3682588
40
3.933929
50
35.4481666
51
85.2266558
0
ARC
8
top_labelLayer
10
464.5954272
20
83.8770813
40
5.4408934
50
84.0378807
51
90.084837
0
LINE
8
back_outsideCutPath
10
0
20
278
11
0
21
246
0
LINE
8
back_outsideCutPath
10
0
20
246
11
3
21
246
0
LINE
8
back_outsideCutPath
10
3
20
246
11
3
21
222
0
LINE
8
back_outsideCutPath
10
3
20
222
11
0
21
222
0
LINE
8
back_outsideCutPath
10
0
20
222
11
0
21
198
0
LINE
8
back_outsideCutPath
10
0
20
198
11
3
21
198
0
LINE
8
back_outsideCutPath
10
3
20
198
11
3
21
174
0
LINE
8
back_outsideCutPath
10
3
20
174
11
0
21
174
0
LINE
8
back_outsideCutPath
10
0
20
174
11
0
21
150
0
LINE
8
back_outsideCutPath
10
0
20
150
11
0
21
142
0
LINE
8
back_outsideCutPath
10
0
20
142
11
35.5
21
142
0
LINE
8
back_outsideCutPath
10
35.5
20
142
11
35.5
21
145
0
LINE
8
back_outsideCutPath
10
35.5
20
145
11
59.5
21
145
0
LINE
8
back_outsideCutPath
10
59.5
20
145
11
59.5
21
142
0
LINE
8
back_outsideCutPath
10
59.5
20
142
11
83.5
21
142
0
LINE
8
back_outsideCutPath
10
83.5
20
142
11
83.5
21
145
0
LINE
8
back_outsideCutPath
10
83.5
20
145
11
107.5
21
145
0
LINE
8
back_outsideCutPath
10
107.5
20
145
11
107.5
21
142
0
LINE
8
back_outsideCutPath
10
107.5
20
142
11
131.5
21
142
0
LINE
8
back_outsideCutPath
10
131.5
20
142
11
131.5
21
145
0
LINE
8
back_outsideCutPath
10
131.5
20
145
11
155.5
21
145
0
LINE
8
back_outsideCutPath
10
155.5
20
145
11
155.5
21
142
0
LINE
8
back_outsideCutPath
10
155.5
20
142
11
179.5
21
142
0
LINE
8
back_outsideCutPath
10
179.5
20
142
11
191
21
142
0
LINE
8
back_outsideCutPath
10
191
20
142
11
191
21
174
0
LINE
8
back_outsideCutPath
10
191
20
174
11
188
21
174
0
LINE
8
back_outsideCutPath
10
188
20
174
11
188
21
198
0
LINE
8
back_outsideCutPath
10
188
20
198
11
191
21
198
0
LINE
8
back_outsideCutPath
10
191
20
198
11
191
21
222
0
LINE
8
back_outsideCutPath
10
191
20
222
11
188
21
222
0
LINE
8
back_outsideCutPath
10
188
20
222
11
188
21
246
0
LINE
8
back_outsideCutPath
10
188
20
246
11
191
21
246
0
LINE
8
back_outsideCutPath
10
191
20
246
11
191
21
270
0
LINE
8
back_outsideCutPath
10
191
20
270
11
191
21
278
0
LINE
8
back_outsideCutPath
10
191
20
278
11
155.5
21
278
0
LINE
8
back_outsideCutPath
10
155.5
20
278
11
155.5
21
275
0
LINE
8
back_outsideCutPath
10
155.5
20
275
11
131.5
21
275
0
LINE
8
back_outsideCutPath
10
131.5
20
275
11
131.5
21
278
0
LINE
8
back_outsideCutPath
10
131.5
20
278
11
107.5
21
278
0
LINE
8
back_outsideCutPath
10
107.5
20
278
11
107.5
21
275
0
LINE
8
back_outsideCutPath
10
107.5
20
275
11
83.5
21
275
0
LINE
8
back_outsideCutPath
10
83.5
20
275
11
83.5
21
278
0
LINE
8
back_outsideCutPath
10
83.5
20
278
11
59.5
21
278
0
LINE
8
back_outsideCutPath
10
59.5
20
278
11
59.5
21
275
0
LINE
8
back_outsideCutPath
10
59.5
20
275
11
35.5
21
275
0
LINE
8
back_outsideCutPath
10
35.5
20
275
11
35.5
21
278
0
LINE
8
back_outsideCutPath
10
35.5
20
278
11
11.5
21
278
0
LINE
8
back_outsideCutPath
10
11.5
20
278
11
0
21
278
0
LINE
8
back_labelLayer
10
69.5085938
20
201.6728063
11
69.3492188
21
201.6728063
0
LINE
8
back_labelLayer
10
69.3492188
20
201.6728063
11
68.884375
21
199.80015
0
LINE
8
back_labelLayer
10
68.884375
20
199.80015
11
67.3039063
21
199.80015
0
LINE
8
back_labelLayer
10
67.3039063
20
199.80015
11
67.3039063
21
220.465775
0
LINE
8
back_labelLayer
10
67.3039063
20
220.465775
11
69.5085938
21
220.465775
0
LINE
8
back_labelLayer
10
69.5085938
20
220.465775
11
69.5085938
21
215.4454625
0
LINE
8
back_labelLayer
10
69.4023438
20
212.4173375
11
69.5085938
21
212.4173375
0
ARC
8
back_labelLayer
10
74.143482
20
207.857496
40
6.7382911
50
74.2393391
51
90.5623837
0
ARC
8
back_labelLayer
10
74.5890405
20
209.4920482
40
5.0441906
50
38.5631271
51
74.067041
0
ARC
8
back_labelLayer
10
73.442416
20
208.6004814
40
6.4965671
50
16.4709303
51
38.4075244
0
ARC
8
back_labelLayer
10
70.1391664
20
207.5646787
40
9.9581051
50
5.1338521
51
16.797342
0
ARC
8
back_labelLayer
10
65.9690603
20
207.121704
40
14.1512843
50
359.8779376
51
5.409354
0
ARC
8
back_labelLayer
10
67.1939439
20
207.0152915
40
12.9265936
50
350.6562846
51
0.3380377
0
ARC
8
back_labelLayer
10
71.7003594
20
206.2488007
40
8.3555599
50
335.8306005
51
350.825481
0
ARC
8
back_labelLayer
10
73.6826662
20
205.3932085
40
6.1967918
50
321.3161343
51
335.5436265
0
ARC
8
back_labelLayer
10
74.4405019
20
204.775686
40
5.2192614
50
274.0640091
51
321.4081
0
ARC
8
back_labelLayer
10
74.0874503
20
207.0120161
40
7.4774979
50
269.9225593
51
275.5481817
0
ARC
8
back_labelLayer
10
74.0401647
20
206.2217137
40
6.687292
50
255.7755337
51
270.3185467
0
ARC
8
back_labelLayer
10
73.8493274
20
205.3738469
40
5.8185746
50
245.980159
51
255.545578
0
ARC
8
back_labelLayer
10
73.4796952
20
204.5142658
40
4.8829848
50
215.5850226
51
245.8361711
0
ARC
8
back_labelLayer
10
23.5427573
20
215.4065975
40
45.9658528
50
358.1123211
51
0.0484448
0
ARC
8
back_labelLayer
10
36.3357668
20
214.9771008
40
33.165639
50
355.7238564
51
358.1258974
0
ARC
8
back_labelLayer
10
41.8962406
20
214.5957493
40
27.5922306
50
355.4717751
51
355.6525932
0
ARC
8
back_labelLayer
10
73.6202398
20
209.5501763
40
5.0126088
50
95.1835135
51
145.1109007
0
ARC
8
back_labelLayer
10
74.060829
20
207.065647
40
7.5298335
50
89.8743364
51
96.8145312
0
ARC
8
back_labelLayer
10
73.7124374
20
206.5541863
40
6.1953544
50
89.573134
51
100.7324298
0
ARC
8
back_labelLayer
10
73.2538092
20
208.8713351
40
3.8333788
50
100.4469509
51
119.6700713
0
ARC
8
back_labelLayer
10
72.8285206
20
209.6664627
40
2.9320791
50
120.1402909
51
142.4248987
0
ARC
8
back_labelLayer
10
73.5321195
20
209.2010082
40
3.7740337
50
143.3382155
51
161.2559965
0
ARC
8
back_labelLayer
10
76.474468
20
208.1563771
40
6.8961518
50
160.892648
51
171.23343
0
ARC
8
back_labelLayer
10
81.3863541
20
207.363975
40
11.8714744
50
171.0667855
51
177.8456907
0
ARC
8
back_labelLayer
10
86.4946706
20
207.1041617
40
16.9860817
50
177.6176571
51
180.0425192
0
ARC
8
back_labelLayer
10
84.085699
20
207.0346349
40
14.5772164
50
179.7762697
51
185.7075265
0
ARC
8
back_labelLayer
10
78.338441
20
206.4424651
40
8.7995765
50
185.5924955
51
194.2050604
0
ARC
8
back_labelLayer
10
74.6567762
20
205.4869468
40
4.9960582
50
193.9430422
51
208.0218347
0
ARC
8
back_labelLayer
10
73.1671828
20
204.7291523
40
3.3252172
50
208.5536794
51
217.5605136
0
ARC
8
back_labelLayer
10
73.0458064
20
204.6786653
40
3.1984046
50
218.1690484
51
253.8047108
0
ARC
8
back_labelLayer
10
73.6390471
20
206.507685
40
5.120651
50
253.1382355
51
266.8483184
0
ARC
8
back_labelLayer
10
73.8053995
20
208.4694991
40
7.088883
50
266.3775787
51
270.0510753
0
ARC
8
back_labelLayer
10
73.858748
20
205.7753925
40
4.3950253
50
269.3868909
51
285.863057
0
ARC
8
back_labelLayer
10
74.1852708
20
204.595293
40
3.1706265
50
286.0162843
51
326.8497344
0
ARC
8
back_labelLayer
10
72.6093084
20
205.6393115
40
5.0610066
50
326.710493
51
343.666186
0
ARC
8
back_labelLayer
10
69.65918
20
206.5407744
40
8.1456644
50
343.4171458
51
353.6369158
0
ARC
8
back_labelLayer
10
65.203316
20
207.0694942
40
12.6327152
50
353.4934783
51
0.2205376
0
ARC
8
back_labelLayer
10
64.810535
20
207.170841
40
13.0255092
50
359.7680883
51
6.3095198
0
ARC
8
back_labelLayer
10
69.7170009
20
207.7338872
40
8.0869105
50
6.1648602
51
16.0396467
0
ARC
8
back_labelLayer
10
72.8776391
20
208.6653273
40
4.7920045
50
15.7779432
51
32.0151231
0
ARC
8
back_labelLayer
10
73.8632345
20
209.2297416
40
3.6573536
50
32.7034233
51
35.5242475
0
ARC
8
back_labelLayer
10
74.223717
20
209.4859577
40
3.2150942
50
35.5408369
51
79.801126
0
ARC
8
back_labelLayer
10
73.7919615
20
207.6504712
40
5.0990067
50
78.6781499
51
90.3749442
0
LINE
8
back_labelLayer
10
94.5570313
20
199.80015
11
92.9234375
21
199.80015
0
LINE
8
back_labelLayer
10
92.9234375
20
199.80015
11
92.4851563
21
201.872025
0
LINE
8
back_labelLayer
10
92.4851563
20
201.872025
11
92.3789063
21
201.872025
0
LINE
8
back_labelLayer
10
89.9351563
20
208.4462438
11
92.4054688
21
208.5259313
0
LINE
8
back_labelLayer
10
92.4054688
20
208.5259313
11
92.4054688
21
209.4290563
0
LINE
8
back_labelLayer
10
85.19375
20
211.6603063
11
84.5164063
21
213.347025
0
LINE
8
back_labelLayer
10
94.5570313
20
209.734525
11
94.5570313
21
199.80015
0
LINE
8
back_labelLayer
10
92.3523438
20
205.6439
11
92.3523438
21
206.9587438
0
LINE
8
back_labelLayer
10
92.3523438
20
206.9587438
11
90.1476563
21
206.865775
0
ARC
8
back_labelLayer
10
85.2057214
20
207.5356046
40
9.1395139
50
314.7445033
51
321.7071852
0
ARC
8
back_labelLayer
10
87.451159
20
205.2540654
40
5.9383866
50
304.8485496
51
314.8530783
0
ARC
8
back_labelLayer
10
88.5298217
20
203.7186958
40
4.0620119
50
294.3932634
51
304.7371623
0
ARC
8
back_labelLayer
10
88.1613008
20
204.6735577
40
5.0841728
50
281.2979571
51
293.7313765
0
ARC
8
back_labelLayer
10
87.6741456
20
207.0345546
40
7.4948719
50
272.9334893
51
281.4139209
0
ARC
8
back_labelLayer
10
87.5126715
20
209.4562066
40
9.9216846
50
269.9538941
51
273.1490658
0
ARC
8
back_labelLayer
10
87.4568919
20
206.3002428
40
6.7658866
50
258.6719768
51
270.4047522
0
ARC
8
back_labelLayer
10
86.9869252
20
204.0521104
40
4.4692783
50
238.3273226
51
258.918377
0
ARC
8
back_labelLayer
10
86.6630602
20
203.461255
40
3.7965311
50
227.7689442
51
237.8050108
0
ARC
8
back_labelLayer
10
86.5617578
20
203.3198385
40
3.6237883
50
192.082762
51
227.4520786
0
ARC
8
back_labelLayer
10
88.4300397
20
203.7803873
40
5.5474015
50
179.5457366
51
192.6949274
0
ARC
8
back_labelLayer
10
86.6944213
20
203.9812444
40
3.8148358
50
115.4904678
51
182.3568101
0
ARC
8
back_labelLayer
10
88.6049321
20
200.4769741
40
7.8032008
50
101.3568185
51
117.0798649
0
ARC
8
back_labelLayer
10
90.1392486
20
193.3069731
40
15.1352293
50
92.469624
51
101.7064903
0
ARC
8
back_labelLayer
10
90.5801747
20
186.9215031
40
21.534403
50
91.7164333
51
92.909618
0
ARC
8
back_labelLayer
10
86.0731776
20
209.4629508
40
6.3323819
50
359.6933189
51
8.0035757
0
ARC
8
back_labelLayer
10
88.468592
20
209.8119127
40
3.911731
50
7.8272597
51
20.6041809
0
ARC
8
back_labelLayer
10
89.8241124
20
210.3304674
40
2.4604477
50
20.4094208
51
41.447943
0
ARC
8
back_labelLayer
10
90.0243959
20
210.4405583
40
2.2380101
50
42.729544
51
71.038048
0
ARC
8
back_labelLayer
10
89.55287
20
209.1584762
40
3.6038567
50
70.5716081
51
83.99287
0
ARC
8
back_labelLayer
10
89.3276028
20
207.3286507
40
5.4473062
50
83.6506603
51
90.1752894
0
ARC
8
back_labelLayer
10
89.3671189
20
205.5981798
40
7.1779713
50
90.4484543
51
103.7665627
0
ARC
8
back_labelLayer
10
90.2112158
20
202.0385812
40
10.8362156
50
103.6226542
51
112.4319925
0
ARC
8
back_labelLayer
10
91.6580638
20
198.3853944
40
14.7651834
50
112.2122122
51
115.9640996
0
ARC
8
back_labelLayer
10
89.3410368
20
204.3998031
40
10.1651287
50
106.3568683
51
118.3349775
0
ARC
8
back_labelLayer
10
89.7740161
20
203.0623053
40
11.5704931
50
104.5162036
51
106.548952
0
ARC
8
back_labelLayer
10
89.4564815
20
204.3853059
40
10.2101645
50
90.0714447
51
104.6521021
0
ARC
8
back_labelLayer
10
89.4965501
20
205.2842006
40
9.3114116
50
81.56799
51
90.3248957
0
ARC
8
back_labelLayer
10
90.0349212
20
208.7915532
40
5.763056
50
68.2273573
51
81.7494155
0
ARC
8
back_labelLayer
10
90.7847842
20
210.6572813
40
3.7522832
50
47.8683301
51
68.2934111
0
ARC
8
back_labelLayer
10
90.9064896
20
210.9002887
40
3.4911814
50
19.2331004
51
46.6741232
0
ARC
8
back_labelLayer
10
88.8790997
20
210.1460952
40
5.6540286
50
6.3379012
51
19.6815395
0
ARC
8
back_labelLayer
10
85.8821058
20
209.7644023
40
8.6749767
50
359.802669
51
6.6583413
0
ARC
8
back_labelLayer
10
87.9875502
20
207.4240233
40
6.0701307
50
269.5791932
51
282.0413791
0
ARC
8
back_labelLayer
10
88.4303231
20
205.460078
40
4.0570943
50
281.7120971
51
306.4593861
0
ARC
8
back_labelLayer
10
88.6266772
20
205.1371723
40
3.680861
50
306.9880766
51
313.8559521
0
ARC
8
back_labelLayer
10
88.6032989
20
205.1305076
40
3.6923152
50
314.1891994
51
347.4269789
0
ARC
8
back_labelLayer
10
86.7537315
20
205.5940016
40
5.5986449
50
346.917751
51
0.2824673
0
ARC
8
back_labelLayer
10
85.3780845
20
205.643824
40
6.9742592
50
359.8174449
51
0.0006248
0
ARC
8
back_labelLayer
10
90.6720809
20
190.6862248
40
16.1880471
50
91.8564672
51
96.4478501
0
ARC
8
back_labelLayer
10
89.9420483
20
197.0033685
40
9.8288939
50
96.3545405
51
102.9953275
0
ARC
8
back_labelLayer
10
88.9510746
20
201.2137112
40
5.5035751
50
102.7995358
51
113.2433067
0
ARC
8
back_labelLayer
10
88.1341419
20
203.1675002
40
3.3860307
50
113.5886431
51
121.6805
0
ARC
8
back_labelLayer
10
87.5665646
20
204.0319066
40
2.3525273
50
120.9734096
51
172.4179788
0
ARC
8
back_labelLayer
10
88.6759288
20
203.8103164
40
3.4822013
50
171.2121923
51
180.2058407
0
ARC
8
back_labelLayer
10
88.3443987
20
203.7717743
40
3.1507563
50
179.5266082
51
192.7787246
0
ARC
8
back_labelLayer
10
87.2785503
20
203.5134084
40
2.0542244
50
192.3264451
51
222.0579891
0
ARC
8
back_labelLayer
10
87.1992727
20
203.4660008
40
1.9636875
50
222.5805121
51
229.2546842
0
ARC
8
back_labelLayer
10
87.4671718
20
203.8109138
40
2.3999595
50
229.7837009
51
254.2724287
0
ARC
8
back_labelLayer
10
87.8239801
20
204.9999414
40
3.6412507
50
253.9396638
51
266.4533819
0
ARC
8
back_labelLayer
10
87.9378612
20
206.3126455
40
4.9585917
50
266.0783283
51
270.0590167
0
LINE
8
back_labelLayer
10
108.8078125
20
213.8649938
11
108.1304688
21
211.9923375
0
LINE
8
back_labelLayer
10
108.5953125
20
202.2439
11
108.5953125
21
200.2915563
0
ARC
8
back_labelLayer
10
104.8460849
20
207.7740184
40
8.2397934
50
256.424367
51
270.4889887
0
ARC
8
back_labelLayer
10
104.187648
20
205.2041996
40
5.5873404
50
221.797629
51
256.8020508
0
ARC
8
back_labelLayer
10
104.82527
20
205.675314
40
6.3771151
50
196.0166641
51
221.1349224
0
ARC
8
back_labelLayer
10
108.0298936
20
206.6548127
40
9.7277687
50
183.59137
51
196.3539589
0
ARC
8
back_labelLayer
10
111.6198645
20
206.9710821
40
13.3308097
50
179.9388645
51
183.9815102
0
ARC
8
back_labelLayer
10
110.4534184
20
207.0636258
40
12.1646081
50
169.897847
51
180.3688907
0
ARC
8
back_labelLayer
10
106.2186387
20
207.8469959
40
7.8581272
50
153.0875179
51
170.1051317
0
ARC
8
back_labelLayer
10
104.611865
20
208.6147569
40
6.0780077
50
138.6549957
51
152.6853634
0
ARC
8
back_labelLayer
10
104.3119854
20
208.8332899
40
5.7086149
50
101.4912928
51
138.3133908
0
ARC
8
back_labelLayer
10
105.000449
20
205.9679779
40
8.6542696
50
89.5891865
51
102.1787759
0
ARC
8
back_labelLayer
10
105.0533892
20
204.6729012
40
9.949128
50
77.7702392
51
89.9475321
0
ARC
8
back_labelLayer
10
104.8650922
20
203.63408
40
11.0043207
50
74.6796733
51
77.9578473
0
ARC
8
back_labelLayer
10
105.8822721
20
207.3191289
40
7.1814742
50
70.0945781
51
74.7386102
0
ARC
8
back_labelLayer
10
106.8498574
20
209.9707967
40
4.3588011
50
63.5033682
51
70.1861752
0
ARC
8
back_labelLayer
10
107.3233805
20
210.960781
40
3.2615932
50
62.9270351
51
63.1890582
0
ARC
8
back_labelLayer
10
104.5087338
20
202.8776884
40
9.8078435
50
68.3294429
51
74.8831303
0
ARC
8
back_labelLayer
10
103.9912785
20
201.042848
40
11.7141562
50
74.7802037
51
77.4497319
0
ARC
8
back_labelLayer
10
104.5345585
20
203.5928988
40
9.1070156
50
77.2998876
51
81.7345276
0
ARC
8
back_labelLayer
10
104.930781
20
206.3537766
40
6.317857
50
81.6910271
51
87.5078967
0
ARC
8
back_labelLayer
10
105.0072237
20
207.7825386
40
4.8871434
50
87.674907
51
89.9747783
0
ARC
8
back_labelLayer
10
104.9000823
20
207.7805827
40
4.89032
50
88.719402
51
112.5667693
0
ARC
8
back_labelLayer
10
104.5525919
20
208.9294751
40
3.6979902
50
114.4265753
51
161.6632807
0
ARC
8
back_labelLayer
10
108.0045598
20
207.5783377
40
7.4023598
50
160.1418418
51
175.1368217
0
ARC
8
back_labelLayer
10
112.7557995
20
207.0448124
40
12.1824065
50
174.5309933
51
180.1549392
0
ARC
8
back_labelLayer
10
111.2505221
20
206.9567344
40
10.6772269
50
179.7041385
51
188.07437
0
ARC
8
back_labelLayer
10
107.404705
20
206.3940487
40
6.7905224
50
187.9315176
51
200.3885487
0
ARC
8
back_labelLayer
10
105.3252573
20
205.6237193
40
4.5729784
50
200.4183456
51
216.6392546
0
ARC
8
back_labelLayer
10
104.4534927
20
205.0005181
40
3.5016141
50
216.969537
51
261.3103009
0
ARC
8
back_labelLayer
10
104.8382191
20
206.7941796
40
5.3339323
50
260.1359498
51
270.2692122
0
ARC
8
back_labelLayer
10
104.8204598
20
210.6892968
40
9.2290898
50
270.2658441
51
286.2891401
0
ARC
8
back_labelLayer
10
104.2593957
20
212.7816829
40
11.3949568
50
286.0460758
51
292.3653952
0
ARC
8
back_labelLayer
10
105.7535824
20
205.8819158
40
6.2711681
50
282.0344237
51
296.945455
0
ARC
8
back_labelLayer
10
105.1086277
20
208.788486
40
9.2483649
50
272.5980627
51
282.1878318
0
ARC
8
back_labelLayer
10
104.9236846
20
211.6249715
40
12.0904486
50
269.9655085
51
272.8642845
0
LINE
8
back_labelLayer
10
114.1203125
20
207.2509313
11
114.2265625
21
207.2509313
0
LINE
8
back_labelLayer
10
115.9664063
20
209.3759313
11
120.6679688
21
214.3564
0
LINE
8
back_labelLayer
10
120.6679688
20
214.3564
11
123.284375
21
214.3564
0
LINE
8
back_labelLayer
10
123.284375
20
214.3564
11
117.3875
21
208.1540563
0
LINE
8
back_labelLayer
10
117.3875
20
208.1540563
11
123.6960938
21
199.80015
0
LINE
8
back_labelLayer
10
123.6960938
20
199.80015
11
121.0265625
21
199.80015
0
LINE
8
back_labelLayer
10
121.0265625
20
199.80015
11
115.8867188
21
206.6798375
0
LINE
8
back_labelLayer
10
115.8867188
20
206.6798375
11
114.2265625
21
205.2454625
0
LINE
8
back_labelLayer
10
114.2265625
20
205.2454625
11
114.2265625
21
199.80015
0
LINE
8
back_labelLayer
10
114.2265625
20
199.80015
11
112.0484375
21
199.80015
0
LINE
8
back_labelLayer
10
112.0484375
20
199.80015
11
112.0484375
21
220.465775
0
LINE
8
back_labelLayer
10
112.0484375
20
220.465775
11
114.2265625
21
220.465775
0
LINE
8
back_labelLayer
10
114.2265625
20
220.465775
11
114.2265625
21
209.5087438
0
ARC
8
back_labelLayer
10
124.8791879
20
199.7105572
40
13.0512708
50
142.3233542
51
144.7075422
0
ARC
8
back_labelLayer
10
131.8301398
20
194.3491181
40
21.8296959
50
140.4331415
51
142.3365306
0
ARC
8
back_labelLayer
10
140.8865414
20
186.8941071
40
33.5597979
50
139.2799008
51
140.4703565
0
ARC
8
back_labelLayer
10
151.3593952
20
177.8881661
40
47.3723866
50
138.3417545
51
139.2877183
0
ARC
8
back_labelLayer
10
99.5343017
20
209.5362463
40
14.6922865
50
358.2739513
51
359.8927478
0
ARC
8
back_labelLayer
10
88.1034081
20
209.8548307
40
26.1276024
50
357.5041619
51
358.3306744
0
ARC
8
back_labelLayer
10
70.9994716
20
210.610279
40
43.2482125
50
356.6325019
51
357.4910335
0
ARC
8
back_labelLayer
10
42.5592035
20
212.2690201
40
71.7368091
50
356.0329297
51
356.6442483
0
ARC
8
back_labelLayer
10
24.6411781
20
213.4761987
40
89.695426
50
356.0202148
51
356.0555036
0
LINE
8
right_outsideCutPath
10
197
20
278
11
197
21
246
0
LINE
8
right_outsideCutPath
10
197
20
246
11
194
21
246
0
LINE
8
right_outsideCutPath
10
194
20
246
11
194
21
222
0
LINE
8
right_outsideCutPath
10
194
20
222
11
197
21
222
0
LINE
8
right_outsideCutPath
10
197
20
222
11
197
21
198
0
LINE
8
right_outsideCutPath
10
197
20
198
11
194
21
198
0
LINE
8
right_outsideCutPath
10
194
20
198
11
194
21
174
0
LINE
8
right_outsideCutPath
10
194
20
174
11
197
21
174
0
LINE
8
right_outsideCutPath
10
197
20
174
11
197
21
150
0
LINE
8
right_outsideCutPath
10
197
20
150
11
197
21
142
0
LINE
8
right_outsideCutPath
10
197
20
142
11
212
21
142
0
LINE
8
right_outsideCutPath
10
212
20
142
11
212
21
145
0
LINE
8
right_outsideCutPath
10
212
20
145
11
236
21
145
0
LINE
8
right_outsideCutPath
10
236
20
145
11
236
21
142
0
LINE
8
right_outsideCutPath
10
236
20
142
11
260
21
142
0
LINE
8
right_outsideCutPath
10
260
20
142
11
260
21
145
0
LINE
8
right_outsideCutPath
10
260
20
145
11
284
21
145
0
LINE
8
right_outsideCutPath
10
284
20
145
11
284
21
142
0
LINE
8
right_outsideCutPath
10
284
20
142
11
308
21
142
0
LINE
8
right_outsideCutPath
10
308
20
142
11
308
21
145
0
LINE
8
right_outsideCutPath
10
308
20
145
11
332
21
145
0
LINE
8
right_outsideCutPath
10
332
20
145
11
332
21
142
0
LINE
8
right_outsideCutPath
10
332
20
142
11
347
21
142
0
LINE
8
right_outsideCutPath
10
347
20
142
11
347
21
174
0
LINE
8
right_outsideCutPath
10
347
20
174
11
350
21
174
0
LINE
8
right_outsideCutPath
10
350
20
174
11
350
21
198
0
LINE
8
right_outsideCutPath
10
350
20
198
11
347
21
198
0
LINE
8
right_outsideCutPath
10
347
20
198
11
347
21
222
0
LINE
8
right_outsideCutPath
10
347
20
222
11
350
21
222
0
LINE
8
right_outsideCutPath
10
350
20
222
11
350
21
246
0
LINE
8
right_outsideCutPath
10
350
20
246
11
347
21
246
0
LINE
8
right_outsideCutPath
10
347
20
246
11
347
21
270
0
LINE
8
right_outsideCutPath
10
347
20
270
11
347
21
278
0
LINE
8
right_outsideCutPath
10
347
20
278
11
332
21
278
0
LINE
8
right_outsideCutPath
10
332
20
278
11
332
21
275
0
LINE
8
right_outsideCutPath
10
332
20
275
11
308
21
275
0
LINE
8
right_outsideCutPath
10
308
20
275
11
308
21
278
0
LINE
8
right_outsideCutPath
10
308
20
278
11
284
21
278
0
LINE
8
right_outsideCutPath
10
284
20
278
11
284
21
275
0
LINE
8
right_outsideCutPath
10
284
20
275
11
260
21
275
0
LINE
8
right_outsideCutPath
10
260
20
275
11
260
21
278
0
LINE
8
right_outsideCutPath
10
260
20
278
11
236
21
278
0
LINE
8
right_outsideCutPath
10
236
20
278
11
236
21
275
0
LINE
8
right_outsideCutPath
10
236
20
275
11
212
21
275
0
LINE
8
right_outsideCutPath
10
212
20
275
11
212
21
278
0
LINE
8
right_outsideCutPath
10
212
20
278
11
197
21
278
0
LINE
8
right_labelLayer
10
252.2441406
20
217.5969551
11
251.9386719
21
215.5516426
0
LINE
8
right_labelLayer
10
246.0683594
20
210.7438301
11
246.0683594
21
202.9344551
0
LINE
8
right_labelLayer
10
246.0683594
20
202.9344551
11
243.8636719
21
202.9344551
0
LINE
8
right_labelLayer
10
243.8636719
20
202.9344551
11
243.8636719
21
217.4907051
0
LINE
8
right_labelLayer
10
243.8636719
20
217.4907051
11
245.6832031
21
217.4907051
0
LINE
8
right_labelLayer
10
245.6832031
20
217.4907051
11
245.9355469
21
214.7946114
0
LINE
8
right_labelLayer
10
245.9355469
20
214.7946114
11
246.0417969
21
214.7946114
0
ARC
8
right_labelLayer
10
250.5269284
20
207.6349877
40
10.1213678
50
84.9922997
51
90.1281141
0
ARC
8
right_labelLayer
10
250.7699978
20
210.3583091
40
7.387225
50
78.4891799
51
85.0266121
0
ARC
8
right_labelLayer
10
249.8265566
20
206.0672864
40
9.7166889
50
77.4454012
51
81.6360381
0
ARC
8
right_labelLayer
10
250.2499001
20
208.9853539
40
6.7680806
50
81.5884321
51
87.1916396
0
ARC
8
right_labelLayer
10
250.3418561
20
210.5799112
40
5.170951
50
87.3436549
51
89.9660303
0
ARC
8
right_labelLayer
10
250.3204893
20
211.9308682
40
3.8200713
50
89.6335425
51
137.0880774
0
ARC
8
right_labelLayer
10
251.2579904
20
210.8766179
40
5.2262225
50
135.6208875
51
138.8377152
0
ARC
8
right_labelLayer
10
251.1206288
20
211.0106988
40
5.0345698
50
138.9575745
51
174.5422261
0
ARC
8
right_labelLayer
10
252.7602553
20
210.7541422
40
6.6919038
50
173.6907498
51
180.0882916
0
ARC
8
right_labelLayer
10
252.5284581
20
211.1400553
40
7.4453042
50
139.4139296
51
150.603283
0
ARC
8
right_labelLayer
10
251.1935059
20
212.283971
40
5.6872824
50
124.2321436
51
139.416119
0
ARC
8
right_labelLayer
10
250.4797253
20
213.3614204
40
4.3949785
50
89.6796672
51
124.4405653
0
LINE
8
right_labelLayer
10
257.1714844
20
217.4907051
11
257.1714844
21
202.9344551
0
LINE
8
right_labelLayer
10
257.1714844
20
202.9344551
11
254.9667969
21
202.9344551
0
LINE
8
right_labelLayer
10
254.9667969
20
202.9344551
11
254.9667969
21
217.4907051
0
LINE
8
right_labelLayer
10
254.9667969
20
217.4907051
11
257.1714844
21
217.4907051
0
ARC
8
right_labelLayer
10
257.2238693
20
221.4503511
40
2.4430567
50
170.8451844
51
180.3544795
0
ARC
8
right_labelLayer
10
256.3092945
20
221.6032705
40
1.5158116
50
155.9678898
51
171.0515757
0
ARC
8
right_labelLayer
10
255.8663127
20
221.7997967
40
1.0311941
50
133.7880247
51
155.9171684
0
ARC
8
right_labelLayer
10
256.02986
20
221.6189868
40
1.2749146
50
92.6446255
51
133.4710319
0
ARC
8
right_labelLayer
10
256.0815187
20
221.2132737
40
1.6829005
50
89.9692499
51
93.7642473
0
ARC
8
right_labelLayer
10
256.1025516
20
221.5973563
40
1.2989736
50
46.370821
51
90.8879263
0
ARC
8
right_labelLayer
10
256.2318312
20
221.7308202
40
1.1131693
50
17.7251726
51
46.4473456
0
ARC
8
right_labelLayer
10
255.6289712
20
221.523218
40
1.7506727
50
4.9427838
51
18.1900828
0
ARC
8
right_labelLayer
10
254.8620168
20
221.4403061
40
2.5219728
50
359.8848233
51
5.3181462
0
ARC
8
right_labelLayer
10
255.1029482
20
221.4197471
40
2.2810888
50
349.8345007
51
0.3890581
0
ARC
8
right_labelLayer
10
255.9333957
20
221.2648307
40
1.4363483
50
332.6322478
51
350.0705375
0
ARC
8
right_labelLayer
10
256.2566277
20
221.1052208
40
1.0759433
50
313.6153669
51
332.2677735
0
ARC
8
right_labelLayer
10
256.1008549
20
221.2470578
40
1.2861723
50
269.1788275
51
314.2807587
0
ARC
8
right_labelLayer
10
256.0678099
20
221.3613976
40
1.4004562
50
250.5000057
51
270.597821
0
ARC
8
right_labelLayer
10
256.0254277
20
221.2029179
40
1.2369871
50
225.1301084
51
249.9001442
0
ARC
8
right_labelLayer
10
255.9590731
20
221.1296174
40
1.1382346
50
197.7934067
51
224.8941653
0
ARC
8
right_labelLayer
10
256.580132
20
221.3424471
40
1.7946687
50
184.9925559
51
198.2040425
0
ARC
8
right_labelLayer
10
257.3838775
20
221.4298096
40
2.6030237
50
179.8805505
51
185.3686005
0
LINE
8
right_labelLayer
10
268.7261719
20
217.4907051
11
273.7597656
21
217.4907051
0
LINE
8
right_labelLayer
10
273.7597656
20
217.4907051
11
273.7597656
21
216.0961739
0
LINE
8
right_labelLayer
10
273.7597656
20
216.0961739
11
271.0636719
21
215.7774239
0
LINE
8
right_labelLayer
10
266.0964844
20
205.2453926
11
268.6730469
21
205.2453926
0
LINE
8
right_labelLayer
10
267.9691406
20
203.2664864
11
265.3261719
21
203.2664864
0
ARC
8
right_labelLayer
10
268.2541432
20
213.5539946
40
3.5828884
50
29.4584276
51
38.3576944
0
ARC
8
right_labelLayer
10
266.7900336
20
212.7181936
40
5.2687531
50
23.184559
51
29.5422206
0
ARC
8
right_labelLayer
10
265.3932643
20
212.0987662
40
6.7966143
50
21.2506494
51
23.3489737
0
ARC
8
right_labelLayer
10
267.7675965
20
213.0430519
40
4.2415175
50
6.8504872
51
20.9871761
0
ARC
8
right_labelLayer
10
266.5730175
20
212.8810867
40
5.4469181
50
359.8710742
51
7.0432034
0
ARC
8
right_labelLayer
10
266.9660565
20
212.8162771
40
5.0541386
50
342.5649713
51
0.595773
0
ARC
8
right_labelLayer
10
267.8981888
20
212.5588807
40
4.0878478
50
310.6097748
51
342.0923651
0
ARC
8
right_labelLayer
10
267.3754805
20
213.1668853
40
4.8896538
50
284.9315864
51
310.6222766
0
ARC
8
right_labelLayer
10
266.7213719
20
215.4589778
40
7.273011
50
272.5334997
51
285.2579599
0
ARC
8
right_labelLayer
10
266.5531918
20
217.7562576
40
9.5757103
50
269.9692159
51
272.9312102
0
ARC
8
right_labelLayer
10
266.5323255
20
215.266057
40
7.0855256
50
263.4836721
51
270.1271281
0
ARC
8
right_labelLayer
10
266.4168946
20
214.1697032
40
5.983163
50
259.4963203
51
263.3904387
0
ARC
8
right_labelLayer
10
267.1312236
20
204.8035405
40
3.9231748
50
117.3935445
51
128.4095094
0
ARC
8
right_labelLayer
10
266.1212376
20
206.0565038
40
2.3139194
50
128.0881805
51
147.1400171
0
ARC
8
right_labelLayer
10
265.577124
20
206.421647
40
1.6587818
50
147.5369112
51
180.2592079
0
ARC
8
right_labelLayer
10
265.0609313
20
206.4000205
40
1.1426592
50
179.2918634
51
198.3581081
0
ARC
8
right_labelLayer
10
264.8469929
20
206.3437946
40
0.9220068
50
199.229168
51
239.5691106
0
ARC
8
right_labelLayer
10
265.0247073
20
206.5894395
40
1.2241632
50
238.2203873
51
239.8453079
0
ARC
8
right_labelLayer
10
265.1659002
20
206.8800252
40
1.5465353
50
240.7302736
51
254.5026796
0
ARC
8
right_labelLayer
10
265.5879925
20
208.3345399
40
3.0610021
50
254.1637012
51
262.2123231
0
ARC
8
right_labelLayer
10
265.9223369
20
210.6698112
40
5.4200599
50
262.0555995
51
267.2083257
0
ARC
8
right_labelLayer
10
266.0838525
20
213.6322511
40
8.3868681
50
267.091919
51
270.0862958
0
ARC
8
right_labelLayer
10
268.7212418
20
196.2207988
40
9.0247226
50
81.5744374
51
90.3059796
0
ARC
8
right_labelLayer
10
269.2162649
20
199.4492608
40
5.758596
50
68.367155
51
81.7399188
0
ARC
8
right_labelLayer
10
269.8628221
20
201.1016247
40
3.9842661
50
52.1879518
51
68.2501086
0
ARC
8
right_labelLayer
10
270.3152255
20
201.711208
40
3.2253641
50
8.6201423
51
51.8982413
0
ARC
8
right_labelLayer
10
268.7296352
20
201.375711
40
4.8442416
50
359.7430488
51
9.7326483
0
ARC
8
right_labelLayer
10
268.800632
20
201.2939891
40
4.7735732
50
340.5268908
51
0.7201485
0
ARC
8
right_labelLayer
10
269.5019885
20
201.1193607
40
4.0547107
50
302.9903693
51
339.5494535
0
ARC
8
right_labelLayer
10
268.7655948
20
202.0551626
40
5.2417059
50
303.1870092
51
304.1722509
0
ARC
8
right_labelLayer
10
268.0795982
20
203.24292
40
6.61166
50
286.2542216
51
302.5280048
0
ARC
8
right_labelLayer
10
266.8309228
20
207.3616334
40
10.915346
50
276.4939773
51
286.4953556
0
ARC
8
right_labelLayer
10
266.0518259
20
213.8744336
40
17.4745137
50
269.754505
51
276.6169604
0
ARC
8
right_labelLayer
10
265.9187691
20
208.7522517
40
12.3523086
50
262.5634828
51
270.2698856
0
ARC
8
right_labelLayer
10
265.3137703
20
204.2680214
40
7.8275166
50
251.2101774
51
262.7064159
0
ARC
8
right_labelLayer
10
264.4417784
20
201.7086047
40
5.1236338
50
235.9668108
51
251.222909
0
ARC
8
right_labelLayer
10
263.5175407
20
200.3900793
40
3.5137944
50
208.9036233
51
236.4231412
0
ARC
8
right_labelLayer
10
263.6023918
20
200.3545122
40
3.5716139
50
182.2079966
51
207.7461409
0
ARC
8
right_labelLayer
10
264.6823838
20
200.4623946
40
4.6554311
50
179.9784861
51
183.0226832
0
ARC
8
right_labelLayer
10
263.3975077
20
200.5232858
40
3.3710734
50
138.3916109
51
181.0052663
0
ARC
8
right_labelLayer
10
263.753499
20
200.2033554
40
3.8496947
50
113.8121447
51
138.3496215
0
ARC
8
right_labelLayer
10
264.4287666
20
198.7451725
40
5.4564579
50
102.2870728
51
114.1172834
0
ARC
8
right_labelLayer
10
264.2165838
20
206.1587442
40
2.2881781
50
216.5861516
51
245.4968709
0
ARC
8
right_labelLayer
10
264.5436827
20
206.4363102
40
2.7164071
50
215.4649856
51
217.1749337
0
ARC
8
right_labelLayer
10
263.998543
20
206.0425617
40
2.0439567
50
182.1767449
51
215.3415483
0
ARC
8
right_labelLayer
10
264.4843082
20
206.094668
40
2.5315737
50
179.9835998
51
182.9376311
0
ARC
8
right_labelLayer
10
264.4738315
20
206.1167046
40
2.5211872
50
161.7226057
51
180.4843356
0
ARC
8
right_labelLayer
10
264.1966291
20
206.1923439
40
2.234299
50
144.4963463
51
161.3350644
0
ARC
8
right_labelLayer
10
264.9355617
20
205.6416256
40
3.1557388
50
132.7259147
51
144.1479443
0
ARC
8
right_labelLayer
10
266.1198361
20
204.3769614
40
4.8883062
50
125.2212387
51
132.8655431
0
ARC
8
right_labelLayer
10
267.3104646
20
202.7236338
40
6.925665
50
121.235236
51
125.3794951
0
ARC
8
right_labelLayer
10
265.1997799
20
212.215529
40
3.8649924
50
215.1640664
51
247.4747951
0
ARC
8
right_labelLayer
10
265.9212343
20
212.7977722
40
4.7904932
50
212.4713671
51
215.8875357
0
ARC
8
right_labelLayer
10
265.7315263
20
212.6620519
40
4.5575966
50
183.0160838
51
212.3123168
0
ARC
8
right_labelLayer
10
266.7316329
20
212.773526
40
5.5624929
50
179.9759448
51
183.6207046
0
ARC
8
right_labelLayer
10
267.5386398
20
212.82966
40
6.3697263
50
166.8195908
51
180.4839252
0
ARC
8
right_labelLayer
10
265.4255416
20
213.3631698
40
4.1908127
50
132.3287777
51
167.3340819
0
ARC
8
right_labelLayer
10
265.7082423
20
212.9568105
40
4.6820437
50
106.2188891
51
131.5377654
0
ARC
8
right_labelLayer
10
266.423535
20
210.6407438
40
7.1058338
50
93.6329756
51
106.5408544
0
ARC
8
right_labelLayer
10
266.6570463
20
208.0190931
40
9.7372426
50
89.9380289
51
94.026757
0
ARC
8
right_labelLayer
10
266.6948573
20
209.3057026
40
8.4506716
50
82.5852035
51
90.1849536
0
ARC
8
right_labelLayer
10
266.9530727
20
211.3035516
40
6.4362061
50
74.0088875
51
82.5694508
0
ARC
8
right_labelLayer
10
264.3659873
20
200.4605908
40
2.214239
50
179.2207352
51
200.9355681
0
ARC
8
right_labelLayer
10
264.1026751
20
200.3996209
40
1.9468786
50
202.0286864
51
236.1457441
0
ARC
8
right_labelLayer
10
264.4994991
20
200.9034695
40
2.5868284
50
235.0634724
51
238.5042076
0
ARC
8
right_labelLayer
10
264.9608846
20
201.7275635
40
3.5307552
50
239.1066339
51
254.4862725
0
ARC
8
right_labelLayer
10
265.5760108
20
203.8485099
40
5.7390116
50
254.2324195
51
263.4937183
0
ARC
8
right_labelLayer
10
265.9623963
20
207.1211501
40
9.0343658
50
263.4108471
51
270.1457514
0
ARC
8
right_labelLayer
10
266.0033831
20
209.1881681
40
11.1013693
50
269.9070741
51
270.0006838
0
ARC
8
right_labelLayer
10
266.056351
20
212.9077387
40
14.8210339
50
269.7957465
51
275.3991167
0
ARC
8
right_labelLayer
10
266.611059
20
207.2131399
40
9.0995206
50
275.2956932
51
283.3516166
0
ARC
8
right_labelLayer
10
267.5147926
20
203.4908527
40
5.2691834
50
283.1370496
51
295.8573113
0
ARC
8
right_labelLayer
10
268.1844363
20
202.0289385
40
3.6617461
50
296.4047458
51
301.8008818
0
ARC
8
right_labelLayer
10
268.4469709
20
201.6670718
40
3.2160171
50
301.223078
51
318.6238096
0
ARC
8
right_labelLayer
10
269.0391328
20
201.1200684
40
2.4101731
50
319.0765505
51
1.14069
0
ARC
8
right_labelLayer
10
268.4660314
20
201.1916781
40
2.9828903
50
359.5461226
51
10.9904631
0
ARC
8
right_labelLayer
10
269.6182258
20
201.4260321
40
1.8071798
50
10.6608944
51
30.9362076
0
ARC
8
right_labelLayer
10
269.9835434
20
201.6287724
40
1.3896765
50
31.5095239
51
58.0777696
0
ARC
8
right_labelLayer
10
269.641152
20
201.0157059
40
2.0913415
50
58.9972229
51
73.8586396
0
ARC
8
right_labelLayer
10
268.9491014
20
198.750143
40
4.4601255
50
73.4099921
51
81.5907333
0
ARC
8
right_labelLayer
10
268.3627215
20
194.9554798
40
8.2997833
50
81.4172358
51
86.5756464
0
ARC
8
right_labelLayer
10
268.0033981
20
189.2382515
40
14.0282766
50
86.5054457
51
90.1399183
0
ARC
8
right_labelLayer
10
265.29464
20
198.1986557
40
5.0679287
50
89.6435123
51
100.0209202
0
ARC
8
right_labelLayer
10
264.9761138
20
199.9314143
40
3.306201
50
99.8103024
51
116.8229433
0
ARC
8
right_labelLayer
10
264.665831
20
200.5857597
40
2.5823146
50
117.2304369
51
130.5023323
0
ARC
8
right_labelLayer
10
264.5065223
20
200.7905096
40
2.3231895
50
130.7944793
51
169.0413355
0
ARC
8
right_labelLayer
10
265.67968
20
200.5142274
40
3.5278053
50
168.2580633
51
180.3820318
0
ARC
8
right_labelLayer
10
267.6506294
20
212.7960704
40
4.3034897
50
179.5617591
51
191.6529165
0
ARC
8
right_labelLayer
10
266.1543572
20
212.4727939
40
2.7727981
50
191.3555131
51
213.3660509
0
ARC
8
right_labelLayer
10
265.7950223
20
212.2653094
40
2.3587032
50
213.957396
51
227.7971881
0
ARC
8
right_labelLayer
10
266.107653
20
212.6444788
40
2.849687
50
228.2620764
51
254.7341421
0
ARC
8
right_labelLayer
10
266.5070506
20
214.0136151
40
4.2757454
50
254.4016351
51
267.4348906
0
ARC
8
right_labelLayer
10
266.6112564
20
215.4110286
40
5.6765746
50
267.0154
51
270.0322653
0
ARC
8
right_labelLayer
10
266.6793611
20
214.5370366
40
4.8030201
50
269.225682
51
284.3773269
0
ARC
8
right_labelLayer
10
267.3340057
20
212.2562505
40
2.4320577
50
282.7796621
51
346.4828582
0
ARC
8
right_labelLayer
10
265.3767895
20
212.8106461
40
4.4653866
50
345.436214
51
0.746586
0
ARC
8
right_labelLayer
10
265.1016643
20
212.9366211
40
4.7406173
50
359.1806409
51
15.0431583
0
ARC
8
right_labelLayer
10
267.2497261
20
213.5632321
40
2.5039862
50
13.9535657
51
77.6673839
0
ARC
8
right_labelLayer
10
266.6334268
20
211.3546772
40
4.7949825
50
76.1095047
51
90.7028336
0
ARC
8
right_labelLayer
10
266.5411789
20
211.5233536
40
4.6260661
50
89.5859455
51
101.3333956
0
ARC
8
right_labelLayer
10
266.2105848
20
213.1001502
40
3.0150828
50
101.0620472
51
121.9739176
0
ARC
8
right_labelLayer
10
265.9782472
20
213.5181098
40
2.5376176
50
122.5210939
51
134.996687
0
ARC
8
right_labelLayer
10
266.0739103
20
213.4607941
40
2.6459273
50
135.5840045
51
163.0015857
0
ARC
8
right_labelLayer
10
267.4711627
20
213.002826
40
4.1161282
50
162.5912164
51
175.7343154
0
ARC
8
right_labelLayer
10
269.1470953
20
212.8377296
40
5.7998364
50
175.3393488
51
180.0863735
0
LINE
8
right_labelLayer
10
288.9136719
20
202.9344551
11
286.7089844
21
202.9344551
0
LINE
8
right_labelLayer
10
286.7089844
20
202.9344551
11
286.7089844
21
212.3508614
0
LINE
8
right_labelLayer
10
278.9527344
20
210.5446114
11
278.9527344
21
202.9344551
0
LINE
8
right_labelLayer
10
278.9527344
20
202.9344551
11
276.7480469
21
202.9344551
0
LINE
8
right_labelLayer
10
276.7480469
20
202.9344551
11
276.7480469
21
223.6000801
0
LINE
8
right_labelLayer
10
276.7480469
20
223.6000801
11
278.9527344
21
223.6000801
0
LINE
8
right_labelLayer
10
278.9527344
20
223.6000801
11
278.9527344
21
217.3446114
0
LINE
8
right_labelLayer
10
278.8464844
20
215.4719551
11
278.9792969
21
215.4719551
0
LINE
8
right_labelLayer
10
288.9136719
20
212.4305489
11
288.9136719
21
202.9344551
0
ARC
8
right_labelLayer
10
280.4769838
20
212.3866009
40
6.232103
50
359.6714219
51
8.6877256
0
ARC
8
right_labelLayer
10
282.7867847
20
212.7529204
40
3.8934945
50
8.4931344
51
22.6579945
0
ARC
8
right_labelLayer
10
283.960315
20
213.2406032
40
2.6226673
50
22.7024471
51
42.341962
0
ARC
8
right_labelLayer
10
284.0922277
20
213.2999434
40
2.4856041
50
43.3790785
51
71.538618
0
ARC
8
right_labelLayer
10
283.5989486
20
211.9215971
40
3.9493464
50
71.0827965
51
84.369131
0
ARC
8
right_labelLayer
10
283.3775194
20
210.03894
40
5.8447542
50
84.0197896
51
90.1510634
0
ARC
8
right_labelLayer
10
283.3145959
20
209.2121296
40
6.6717135
50
89.5919571
51
100.3595114
0
ARC
8
right_labelLayer
10
282.8421777
20
211.6947546
40
4.1446465
50
100.1067857
51
118.0847247
0
ARC
8
right_labelLayer
10
282.3616904
20
212.6375895
40
3.0866904
50
118.4551108
51
139.670613
0
ARC
8
right_labelLayer
10
282.8440706
20
212.307875
40
3.6683157
50
140.6208262
51
160.5048945
0
ARC
8
right_labelLayer
10
285.3867251
20
211.3665926
40
6.3794482
50
160.1567058
51
171.5312936
0
ARC
8
right_labelLayer
10
289.500814
20
210.7147637
40
10.5447451
50
171.3202364
51
178.3406771
0
ARC
8
right_labelLayer
10
293.1816721
20
210.5503192
40
14.2289388
50
178.1079714
51
180.0229838
0
ARC
8
right_labelLayer
10
259.119674
20
217.3209753
40
19.8330745
50
357.8674349
51
0.0682824
0
ARC
8
right_labelLayer
10
265.8573311
20
217.0639305
40
13.0905201
50
354.9828676
51
357.8943405
0
ARC
8
right_labelLayer
10
270.3067708
20
216.6764903
40
8.6242457
50
351.9713377
51
354.9618483
0
ARC
8
right_labelLayer
10
282.7136652
20
213.1359773
40
4.4048041
50
119.8315976
51
147.9725825
0
ARC
8
right_labelLayer
10
283.2470664
20
212.3165636
40
5.3812622
50
116.665822
51
120.4182888
0
ARC
8
right_labelLayer
10
283.3466297
20
212.0550124
40
5.6597486
50
96.6652492
51
116.378247
0
ARC
8
right_labelLayer
10
283.5612115
20
210.5745211
40
7.1552589
50
89.8927165
51
96.9959078
0
ARC
8
right_labelLayer
10
283.6298311
20
208.78522
40
8.9447181
50
80.6862974
51
90.3537274
0
ARC
8
right_labelLayer
10
284.186788
20
212.0611496
40
5.6218707
50
65.6022784
51
80.8844086
0
ARC
8
right_labelLayer
10
284.855591
20
213.5674423
40
3.9738502
50
46.7400874
51
65.4130733
0
ARC
8
right_labelLayer
10
284.9010452
20
213.7109643
40
3.8387344
50
19.2204414
51
45.7660664
0
ARC
8
right_labelLayer
10
282.6876153
20
212.8904272
40
6.1990807
50
6.473372
51
19.6468134
0
ARC
8
right_labelLayer
10
279.3801398
20
212.4647373
40
9.5335933
50
359.7945315
51
6.7743863
0
LINE
8
right_labelLayer
10
300.1363281
20
204.7539864
11
300.1363281
21
203.0672676
0
LINE
8
right_labelLayer
10
293.6019531
20
207.1180489
11
293.6019531
21
215.7774239
0
LINE
8
right_labelLayer
10
293.6019531
20
215.7774239
11
291.5167969
21
215.7774239
0
LINE
8
right_labelLayer
10
291.5167969
20
215.7774239
11
291.5167969
21
216.8399239
0
LINE
8
right_labelLayer
10
291.5167969
20
216.8399239
11
293.6019531
21
217.7563301
0
LINE
8
right_labelLayer
10
293.6019531
20
217.7563301
11
294.5316406
21
220.8641426
0
LINE
8
right_labelLayer
10
294.5316406
20
220.8641426
11
295.8066406
21
220.8641426
0
LINE
8
right_labelLayer
10
295.8066406
20
220.8641426
11
295.8066406
21
217.4907051
0
LINE
8
right_labelLayer
10
295.8066406
20
217.4907051
11
300.0300781
21
217.4907051
0
LINE
8
right_labelLayer
10
300.0300781
20
217.4907051
11
300.0300781
21
215.7774239
0
LINE
8
right_labelLayer
10
300.0300781
20
215.7774239
11
295.8066406
21
215.7774239
0
LINE
8
right_labelLayer
10
295.8066406
20
215.7774239
11
295.8066406
21
207.2110176
0
ARC
8
right_labelLayer
10
298.1592601
20
211.7288407
40
7.2404951
50
269.8803562
51
278.3028341
0
ARC
8
right_labelLayer
10
298.2280866
20
211.1663327
40
6.673957
50
278.4155027
51
279.0080262
0
ARC
8
right_labelLayer
10
297.4158996
20
216.3548952
40
11.9256968
50
278.9589346
51
280.5104799
0
ARC
8
right_labelLayer
10
298.1899768
20
212.2015299
40
7.7008156
50
280.4847981
51
282.6268004
0
ARC
8
right_labelLayer
10
298.8690635
20
209.1845345
40
4.6083403
50
282.5876567
51
285.5795458
0
ARC
8
right_labelLayer
10
299.2101755
20
207.9301387
40
3.308429
50
285.7236584
51
286.2564618
0
ARC
8
right_labelLayer
10
299.2094105
20
205.0277528
40
2.168566
50
287.9888713
51
295.3047902
0
ARC
8
right_labelLayer
10
298.6863663
20
206.6102155
40
3.8352153
50
283.3069812
51
288.1197474
0
ARC
8
right_labelLayer
10
298.1338938
20
208.9147377
40
6.2050287
50
280.0069418
51
283.3735669
0
ARC
8
right_labelLayer
10
297.7643579
20
210.9200543
40
8.2440657
50
279.1861996
51
280.1143542
0
ARC
8
right_labelLayer
10
297.5372389
20
212.2119051
40
9.5556232
50
275.526017
51
279.2939522
0
ARC
8
right_labelLayer
10
297.7929466
20
209.5410225
40
6.8725299
50
270.8932833
51
275.5483652
0
ARC
8
right_labelLayer
10
297.8250953
20
208.3180574
40
5.6492272
50
270.0029954
51
270.7606368
0
ARC
8
right_labelLayer
10
297.7364247
20
208.4264674
40
5.7583246
50
253.7848045
51
270.8852527
0
ARC
8
right_labelLayer
10
297.0542167
20
206.0998753
40
3.3337856
50
190.3817643
51
253.8772421
0
ARC
8
right_labelLayer
10
300.5314267
20
207.0400503
40
6.9299126
50
179.3551024
51
192.8477537
0
ARC
8
right_labelLayer
10
300.2460707
20
207.1832518
40
4.4395169
50
179.6416552
51
189.7505722
0
ARC
8
right_labelLayer
10
298.6788303
20
206.9037164
40
2.847592
50
189.5479464
51
205.7873598
0
ARC
8
right_labelLayer
10
298.0347665
20
206.6067194
40
2.1385022
50
206.1294524
51
221.4083901
0
ARC
8
right_labelLayer
10
297.962547
20
206.5519204
40
2.0481022
50
221.5949149
51
262.3505202
0
ARC
8
right_labelLayer
10
298.1343024
20
207.4351616
40
2.9468166
50
261.3266466
51
270.1912872
0
LINE
8
bottom_outsideCutPath
10
356
20
315
11
356
21
300
0
LINE
8
bottom_outsideCutPath
10
356
20
300
11
353
21
300
0
LINE
8
bottom_outsideCutPath
10
353
20
300
11
353
21
276
0
LINE
8
bottom_outsideCutPath
10
353
20
276
11
356
21
276
0
LINE
8
bottom_outsideCutPath
10
356
20
276
11
356
21
252
0
LINE
8
bottom_outsideCutPath
10
356
20
252
11
353
21
252
0
LINE
8
bottom_outsideCutPath
10
353
20
252
11
353
21
228
0
LINE
8
bottom_outsideCutPath
10
353
20
228
11
356
21
228
0
LINE
8
bottom_outsideCutPath
10
356
20
228
11
356
21
204
0
LINE
8
bottom_outsideCutPath
10
356
20
204
11
353
21
204
0
LINE
8
bottom_outsideCutPath
10
353
20
204
11
353
21
180
0
LINE
8
bottom_outsideCutPath
10
353
20
180
11
356
21
180
0
LINE
8
bottom_outsideCutPath
10
356
20
180
11
356
21
165
0
LINE
8
bottom_outsideCutPath
10
356
20
165
11
388.5
21
165
0
LINE
8
bottom_outsideCutPath
10
388.5
20
165
11
388.5
21
162
0
LINE
8
bottom_outsideCutPath
10
388.5
20
162
11
412.5
21
162
0
LINE
8
bottom_outsideCutPath
10
412.5
20
162
11
412.5
21
165
0
LINE
8
bottom_outsideCutPath
10
412.5
20
165
11
436.5
21
165
0
LINE
8
bottom_outsideCutPath
10
436.5
20
165
11
436.5
21
162
0
LINE
8
bottom_outsideCutPath
10
436.5
20
162
11
460.5
21
162
0
LINE
8
bottom_outsideCutPath
10
460.5
20
162
11
460.5
21
165
0
LINE
8
bottom_outsideCutPath
10
460.5
20
165
11
484.5
21
165
0
LINE
8
bottom_outsideCutPath
10
484.5
20
165
11
484.5
21
162
0
LINE
8
bottom_outsideCutPath
10
484.5
20
162
11
508.5
21
162
0
LINE
8
bottom_outsideCutPath
10
508.5
20
162
11
508.5
21
165
0
LINE
8
bottom_outsideCutPath
10
508.5
20
165
11
532.5
21
165
0
LINE
8
bottom_outsideCutPath
10
532.5
20
165
11
541
21
165
0
LINE
8
bottom_outsideCutPath
10
541
20
165
11
541
21
180
0
LINE
8
bottom_outsideCutPath
10
541
20
180
11
544
21
180
0
LINE
8
bottom_outsideCutPath
10
544
20
180
11
544
21
204
0
LINE
8
bottom_outsideCutPath
10
544
20
204
11
541
21
204
0
LINE
8
bottom_outsideCutPath
10
541
20
204
11
541
21
228
0
LINE
8
bottom_outsideCutPath
10
541
20
228
11
544
21
228
0
LINE
8
bottom_outsideCutPath
10
544
20
228
11
544
21
252
0
LINE
8
bottom_outsideCutPath
10
544
20
252
11
541
21
252
0
LINE
8
bottom_outsideCutPath
10
541
20
252
11
541
21
276
0
LINE
8
bottom_outsideCutPath
10
541
20
276
11
544
21
276
0
LINE
8
bottom_outsideCutPath
10
544
20
276
11
544
21
300
0
LINE
8
bottom_outsideCutPath
10
544
20
300
11
541
21
300
0
LINE
8
bottom_outsideCutPath
10
541
20
300
11
541
21
315
0
LINE
8
bottom_outsideCutPath
10
541
20
315
11
508.5
21
315
0
LINE
8
bottom_outsideCutPath
10
508.5
20
315
11
508.5
21
318
0
LINE
8
bottom_outsideCutPath
10
508.5
20
318
11
484.5
21
318
0
LINE
8
bottom_outsideCutPath
10
484.5
20
318
11
484.5
21
315
0
LINE
8
bottom_outsideCutPath
10
484.5
20
315
11
460.5
21
315
0
LINE
8
bottom_outsideCutPath
10
460.5
20
315
11
460.5
21
318
0
LINE
8
bottom_outsideCutPath
10
460.5
20
318
11
436.5
21
318
0
LINE
8
bottom_outsideCutPath
10
436.5
20
318
11
436.5
21
315
0
LINE
8
bottom_outsideCutPath
10
436.5
20
315
11
412.5
21
315
0
LINE
8
bottom_outsideCutPath
10
412.5
20
315
11
412.5
21
318
0
LINE
8
bottom_outsideCutPath
10
412.5
20
318
11
388.5
21
318
0
LINE
8
bottom_outsideCutPath
10
388.5
20
318
11
388.5
21
315
0
LINE
8
bottom_outsideCutPath
10
388.5
20
315
11
364.5
21
315
0
LINE
8
bottom_outsideCutPath
10
364.5
20
315
11
356
21
315
0
LINE
8
bottom_labelLayer
10
399.704223
20
230.4484411
11
399.5214105
21
230.4484411
0
LINE
8
bottom_labelLayer
10
399.5214105
20
230.4484411
11
398.9882073
21
228.3003942
0
LINE
8
bottom_labelLayer
10
398.9882073
20
228.3003942
11
397.1753167
21
228.3003942
0
LINE
8
bottom_labelLayer
10
397.1753167
20
228.3003942
11
397.1753167
21
252.0050817
0
LINE
8
bottom_labelLayer
10
397.1753167
20
252.0050817
11
399.704223
21
252.0050817
0
LINE
8
bottom_labelLayer
10
399.704223
20
252.0050817
11
399.704223
21
246.2464879
0
LINE
8
bottom_labelLayer
10
399.582348
20
242.7730504
11
399.704223
21
242.7730504
0
ARC
8
bottom_labelLayer
10
405.020711
20
237.5426438
40
7.7292164
50
74.2393288
51
90.5623728
0
ARC
8
bottom_labelLayer
10
405.5317936
20
239.4175707
40
5.7859843
50
38.5631293
51
74.0670367
0
ARC
8
bottom_labelLayer
10
404.2165507
20
238.3948927
40
7.4519424
50
16.4709293
51
38.4075301
0
ARC
8
bottom_labelLayer
10
400.4275372
20
237.2067679
40
11.4225217
50
5.1338437
51
16.7973445
0
ARC
8
bottom_labelLayer
10
395.6441876
20
236.6986475
40
16.2323379
50
359.8779366
51
5.409359
0
ARC
8
bottom_labelLayer
10
397.0491878
20
236.576586
40
14.8275588
50
350.6562813
51
0.3380372
0
ARC
8
bottom_labelLayer
10
402.2183195
20
235.6973723
40
9.5843059
50
335.8305896
51
350.8254904
0
ARC
8
bottom_labelLayer
10
404.4921212
20
234.7159663
40
7.1080945
50
321.3161455
51
335.5436182
0
ARC
8
bottom_labelLayer
10
405.3614121
20
234.0076261
40
5.9867993
50
274.0640058
51
321.4081012
0
ARC
8
bottom_labelLayer
10
404.9564405
20
236.5728571
40
8.5771582
50
269.9225616
51
275.5481654
0
ARC
8
bottom_labelLayer
10
404.9022015
20
235.6663112
40
7.6707231
50
255.7755433
51
270.3185455
0
ARC
8
bottom_labelLayer
10
404.6833046
20
234.6937669
40
6.6742625
50
245.9801725
51
255.5455696
0
ARC
8
bottom_labelLayer
10
404.2593097
20
233.7077613
40
5.6010698
50
215.5850151
51
245.8361686
0
ARC
8
bottom_labelLayer
10
346.978119
20
246.2019194
40
52.7261228
50
358.112329
51
0.0484312
0
ARC
8
bottom_labelLayer
10
361.6525914
20
245.7092726
40
38.0433871
50
355.7238718
51
358.1258846
0
ARC
8
bottom_labelLayer
10
368.1565776
20
245.2620699
40
31.5241854
50
355.4714484
51
355.6529877
0
ARC
8
bottom_labelLayer
10
404.4205227
20
239.484248
40
5.7497569
50
95.1835116
51
145.1109006
0
ARC
8
bottom_labelLayer
10
404.9259031
20
236.6343855
40
8.6371232
50
89.8743257
51
96.8145517
0
ARC
8
bottom_labelLayer
10
404.5262798
20
236.047665
40
7.106442
50
89.5731414
51
100.7324276
0
ARC
8
bottom_labelLayer
10
404.0002028
20
238.7055823
40
4.3971054
50
100.4469307
51
119.6700762
0
ARC
8
bottom_labelLayer
10
403.5123728
20
239.6176365
40
3.3632653
50
120.1402791
51
142.4248995
0
ARC
8
bottom_labelLayer
10
404.3194494
20
239.0837289
40
4.3290448
50
143.3382331
51
161.255988
0
ARC
8
bottom_labelLayer
10
407.6944742
20
237.885481
40
7.9102755
50
160.8926288
51
171.2334322
0
ARC
8
bottom_labelLayer
10
413.3286769
20
236.9765488
40
13.6172436
50
171.0667722
51
177.8456953
0
ARC
8
bottom_labelLayer
10
419.1881465
20
236.6785351
40
19.4839288
50
177.6176732
51
180.0425485
0
ARC
8
bottom_labelLayer
10
416.4250685
20
236.5987756
40
16.720973
50
179.7762763
51
185.707516
0
ARC
8
bottom_labelLayer
10
409.8325436
20
235.9195132
40
10.0935978
50
185.5924742
51
194.2050682
0
ARC
8
bottom_labelLayer
10
405.609486
20
234.8234827
40
5.7307673
50
193.9430366
51
208.0218423
0
ARC
8
bottom_labelLayer
10
403.9008052
20
233.9542265
40
3.8141784
50
208.5536223
51
217.5605546
0
ARC
8
bottom_labelLayer
10
403.761613
20
233.8963375
40
3.668757
50
218.1690487
51
253.8047221
0
ARC
8
bottom_labelLayer
10
404.4420961
20
235.9943339
40
5.8736904
50
253.1382408
51
266.8483177
0
ARC
8
bottom_labelLayer
10
404.6329123
20
238.2446511
40
8.1313694
50
266.3775773
51
270.0510722
0
ARC
8
bottom_labelLayer
10
404.6941057
20
235.1543442
40
5.0413481
50
269.3868911
51
285.8630718
0
ARC
8
bottom_labelLayer
10
405.0686468
20
233.8007048
40
3.6368946
50
286.0162837
51
326.8497382
0
ARC
8
bottom_labelLayer
10
403.2609172
20
234.9982588
40
5.8052804
50
326.7105114
51
343.6661801
0
ARC
8
bottom_labelLayer
10
399.8769685
20
236.0322845
40
9.3435419
50
343.4171344
51
353.6369201
0
ARC
8
bottom_labelLayer
10
394.7658106
20
236.6387592
40
14.4904729
50
353.4934822
51
0.2205389
0
ARC
8
bottom_labelLayer
10
394.3152908
20
236.7550107
40
14.9410077
50
359.7680865
51
6.3095256
0
ARC
8
bottom_labelLayer
10
399.9432583
20
237.4008527
40
9.2761824
50
6.1648758
51
16.0396405
0
ARC
8
bottom_labelLayer
10
403.5687202
20
238.4692756
40
5.4967067
50
15.7779392
51
32.0151318
0
ARC
8
bottom_labelLayer
10
404.699253
20
239.1166942
40
4.1951968
50
32.7033867
51
35.5242129
0
ARC
8
bottom_labelLayer
10
405.1127466
20
239.4105849
40
3.6879025
50
35.5408413
51
79.8011257
0
ARC
8
bottom_labelLayer
10
404.6174987
20
237.3051846
40
5.8488504
50
78.67814
51
90.3749549
0
ARC
8
bottom_labelLayer
10
417.6436295
20
236.5760026
40
13.0628434
50
349.1761974
51
0.3862636
0
ARC
8
bottom_labelLayer
10
422.041583
20
235.6992644
40
8.5785627
50
330.2507057
51
349.4116416
0
ARC
8
bottom_labelLayer
10
423.3950566
20
234.9957805
40
7.0546599
50
318.1439708
51
329.7566299
0
ARC
8
bottom_labelLayer
10
423.6393329
20
234.800017
40
6.7421136
50
278.8959148
51
317.9979147
0
ARC
8
bottom_labelLayer
10
423.0099121
20
237.8156212
40
9.8200079
50
269.7502871
51
279.8033287
0
ARC
8
bottom_labelLayer
10
422.9078319
20
236.1165139
40
8.1210236
50
253.5436905
51
270.4182506
0
ARC
8
bottom_labelLayer
10
422.6375014
20
235.0708054
40
7.0416682
50
238.8115538
51
253.2428274
0
ARC
8
bottom_labelLayer
10
422.5502538
20
234.8953519
40
6.846411
50
207.7947045
51
238.675798
0
ARC
8
bottom_labelLayer
10
423.8021263
20
235.6620694
40
8.3119088
50
205.65602
51
208.4461447
0
ARC
8
bottom_labelLayer
10
424.7664502
20
236.0638731
40
9.3552911
50
188.9102471
51
205.3171473
0
ARC
8
bottom_labelLayer
10
428.0161538
20
236.6142684
40
12.6510914
50
179.7744699
51
189.0932889
0
ARC
8
bottom_labelLayer
10
428.4955379
20
236.7530024
40
13.1306786
50
169.244298
51
180.3880772
0
ARC
8
bottom_labelLayer
10
424.0364597
20
237.6344003
40
8.5855165
50
150.7111469
51
169.4695448
0
ARC
8
bottom_labelLayer
10
422.6129776
20
238.3654126
40
6.9866331
50
138.1759344
51
150.2287492
0
ARC
8
bottom_labelLayer
10
422.3762017
20
238.5471106
40
6.689062
50
99.1759357
51
137.9832737
0
ARC
8
bottom_labelLayer
10
423.0279197
20
235.4800579
40
9.8220057
50
89.7326277
51
100.0759852
0
ARC
8
bottom_labelLayer
10
423.1581768
20
236.804607
40
8.497769
50
73.522278
51
90.5692241
0
ARC
8
bottom_labelLayer
10
423.6565196
20
238.6152229
40
6.6202599
50
41.1445692
51
73.2133785
0
ARC
8
bottom_labelLayer
10
422.7052228
20
237.7975966
40
7.8746087
50
13.5014371
51
41.0703435
0
ARC
8
bottom_labelLayer
10
419.0298938
20
236.8358122
40
11.6731689
50
1.1277209
51
13.8800023
0
ARC
8
bottom_labelLayer
10
415.8639102
20
236.6661642
40
14.8422659
50
359.9919004
51
1.5419545
0
ARC
8
bottom_labelLayer
10
430.7916303
20
236.5983453
40
12.806326
50
179.7059626
51
187.9160817
0
ARC
8
bottom_labelLayer
10
426.0946766
20
235.9236316
40
8.0612355
50
187.7639244
51
200.0976793
0
ARC
8
bottom_labelLayer
10
423.5071271
20
234.9755498
40
5.3054651
50
200.0845765
51
216.9131713
0
ARC
8
bottom_labelLayer
10
422.5622559
20
234.300867
40
4.1448742
50
217.3009601
51
261.7099078
0
ARC
8
bottom_labelLayer
10
423.0009015
20
236.3940325
40
6.2808066
50
260.5033057
51
270.2476691
0
ARC
8
bottom_labelLayer
10
423.0846255
20
235.9870054
40
5.873993
50
269.4481566
51
284.7255801
0
ARC
8
bottom_labelLayer
10
423.5496349
20
234.2624407
40
4.087888
50
284.5662301
51
322.6333831
0
ARC
8
bottom_labelLayer
10
422.4624168
20
235.0479068
40
5.4288006
50
323.0089309
51
342.6390505
0
ARC
8
bottom_labelLayer
10
419.3527411
20
236.0642376
40
8.7001771
50
342.3615753
51
353.75376
0
ARC
8
bottom_labelLayer
10
414.7649235
20
236.617239
40
13.3210225
50
353.5363084
51
0.2014108
0
ARC
8
bottom_labelLayer
10
415.4678325
20
236.7284672
40
12.6181955
50
359.7075706
51
7.8972609
0
ARC
8
bottom_labelLayer
10
420.0889855
20
237.3909503
40
7.9498744
50
7.7439895
51
20.0690206
0
ARC
8
bottom_labelLayer
10
422.6640623
20
238.3359079
40
5.2068939
50
20.0256957
51
37.4350618
0
ARC
8
bottom_labelLayer
10
423.5184463
20
238.9421667
40
4.160128
50
37.9577668
51
80.4006221
0
ARC
8
bottom_labelLayer
10
423.0329253
20
236.775831
40
6.3781768
50
79.3453297
51
90.3174913
0
ARC
8
bottom_labelLayer
10
422.9430236
20
237.135652
40
6.0185051
50
89.4805967
51
103.8805004
0
ARC
8
bottom_labelLayer
10
422.4373141
20
239.0613944
40
4.0277835
50
103.4685264
51
142.3118866
0
ARC
8
bottom_labelLayer
10
423.420452
20
238.3699824
40
5.2287715
50
142.902576
51
162.3749709
0
ARC
8
bottom_labelLayer
10
426.5183272
20
237.3376217
40
8.4939366
50
162.0653097
51
173.1674841
0
ARC
8
bottom_labelLayer
10
431.3487268
20
236.721533
40
13.3633772
50
173.0086185
51
180.2463914
0
LINE
8
bottom_labelLayer
10
442.8175042
20
230.3875036
11
442.8175042
21
228.4527379
0
LINE
8
bottom_labelLayer
10
435.3221917
20
233.0992223
11
435.3221917
21
243.0320348
0
LINE
8
bottom_labelLayer
10
435.3221917
20
243.0320348
11
432.9303948
21
243.0320348
0
LINE
8
bottom_labelLayer
10
432.9303948
20
243.0320348
11
432.9303948
21
244.2507848
0
LINE
8
bottom_labelLayer
10
432.9303948
20
244.2507848
11
435.3221917
21
245.3019567
0
LINE
8
bottom_labelLayer
10
435.3221917
20
245.3019567
11
436.388598
21
248.8668004
0
LINE
8
bottom_labelLayer
10
436.388598
20
248.8668004
11
437.851098
21
248.8668004
0
LINE
8
bottom_labelLayer
10
437.851098
20
248.8668004
11
437.851098
21
244.9972692
0
LINE
8
bottom_labelLayer
10
437.851098
20
244.9972692
11
442.6956292
21
244.9972692
0
LINE
8
bottom_labelLayer
10
442.6956292
20
244.9972692
11
442.6956292
21
243.0320348
0
LINE
8
bottom_labelLayer
10
442.6956292
20
243.0320348
11
437.851098
21
243.0320348
0
LINE
8
bottom_labelLayer
10
437.851098
20
243.0320348
11
437.851098
21
233.2058629
0
ARC
8
bottom_labelLayer
10
440.5496922
20
238.3880713
40
8.3052733
50
269.8803467
51
278.3028251
0
ARC
8
bottom_labelLayer
10
440.628648
20
237.7428532
40
7.6554311
50
278.415423
51
279.0079457
0
ARC
8
bottom_labelLayer
10
439.6969425
20
243.694819
40
13.6798724
50
278.9589702
51
280.5104705
0
ARC
8
bottom_labelLayer
10
440.5848951
20
238.9304221
40
8.8334395
50
280.4848127
51
282.6267784
0
ARC
8
bottom_labelLayer
10
441.3638541
20
235.4697056
40
5.2861427
50
282.587657
51
285.5794866
0
ARC
8
bottom_labelLayer
10
441.7548331
20
234.0319099
40
3.7961782
50
285.7235036
51
286.2561365
0
ARC
8
bottom_labelLayer
10
441.7542846
20
230.7015074
40
2.4874484
50
287.9888231
51
295.3048134
0
ARC
8
bottom_labelLayer
10
441.1543539
20
232.5165626
40
4.3990669
50
283.3068929
51
288.119824
0
ARC
8
bottom_labelLayer
10
440.5205684
20
235.1602565
40
7.1176619
50
280.0069698
51
283.3735339
0
ARC
8
bottom_labelLayer
10
440.0964219
20
237.4620742
40
9.4581809
50
279.1862802
51
280.1142629
0
ARC
8
bottom_labelLayer
10
439.8361797
20
238.9422967
40
10.9609846
50
275.5260404
51
279.2939334
0
ARC
8
bottom_labelLayer
10
440.1295142
20
235.8784021
40
7.8830825
50
270.8932496
51
275.5483986
0
ARC
8
bottom_labelLayer
10
440.1663514
20
234.4806833
40
6.4849765
50
270.0032824
51
270.7603419
0
ARC
8
bottom_labelLayer
10
440.0646738
20
234.6000511
40
6.6051328
50
253.7847943
51
270.8852535
0
ARC
8
bottom_labelLayer
10
439.2821417
20
231.9313178
40
3.8240489
50
190.38177
51
253.8772357
0
ARC
8
bottom_labelLayer
10
443.2706974
20
233.0097517
40
7.949009
50
179.3550896
51
192.847755
0
ARC
8
bottom_labelLayer
10
442.9433838
20
233.174014
40
5.0923855
50
179.6416566
51
189.7505766
0
ARC
8
bottom_labelLayer
10
441.1456725
20
232.8533724
40
3.2663599
50
189.5479696
51
205.7873606
0
ARC
8
bottom_labelLayer
10
440.406883
20
232.5126932
40
2.4529803
50
206.1294319
51
221.4084164
0
ARC
8
bottom_labelLayer
10
440.3240498
20
232.4498403
40
2.3492945
50
221.5949194
51
262.3505107
0
ARC
8
bottom_labelLayer
10
440.5210603
20
233.4629485
40
3.380151
50
261.3266383
51
270.1913339
0
LINE
8
bottom_labelLayer
10
453.8319573
20
230.3875036
11
453.8319573
21
228.4527379
0
LINE
8
bottom_labelLayer
10
446.3366448
20
233.0992223
11
446.3366448
21
243.0320348
0
LINE
8
bottom_labelLayer
10
446.3366448
20
243.0320348
11
443.944848
21
243.0320348
0
LINE
8
bottom_labelLayer
10
443.944848
20
243.0320348
11
443.944848
21
244.2507848
0
LINE
8
bottom_labelLayer
10
443.944848
20
244.2507848
11
446.3366448
21
245.3019567
0
LINE
8
bottom_labelLayer
10
446.3366448
20
245.3019567
11
447.4030511
21
248.8668004
0
LINE
8
bottom_labelLayer
10
447.4030511
20
248.8668004
11
448.8655511
21
248.8668004
0
LINE
8
bottom_labelLayer
10
448.8655511
20
248.8668004
11
448.8655511
21
244.9972692
0
LINE
8
bottom_labelLayer
10
448.8655511
20
244.9972692
11
453.7100823
21
244.9972692
0
LINE
8
bottom_labelLayer
10
453.7100823
20
244.9972692
11
453.7100823
21
243.0320348
0
LINE
8
bottom_labelLayer
10
453.7100823
20
243.0320348
11
448.8655511
21
243.0320348
0
LINE
8
bottom_labelLayer
10
448.8655511
20
243.0320348
11
448.8655511
21
233.2058629
0
ARC
8
bottom_labelLayer
10
451.5641454
20
238.3880713
40
8.3052733
50
269.8803467
51
278.3028251
0
ARC
8
bottom_labelLayer
10
451.6431012
20
237.7428532
40
7.6554311
50
278.415423
51
279.0079457
0
ARC
8
bottom_labelLayer
10
450.7113956
20
243.694819
40
13.6798724
50
278.9589702
51
280.5104705
0
ARC
8
bottom_labelLayer
10
451.5993482
20
238.9304221
40
8.8334395
50
280.4848127
51
282.6267784
0
ARC
8
bottom_labelLayer
10
452.3783073
20
235.4697056
40
5.2861427
50
282.587657
51
285.5794866
0
ARC
8
bottom_labelLayer
10
452.7692863
20
234.0319099
40
3.7961782
50
285.7235036
51
286.2561365
0
ARC
8
bottom_labelLayer
10
452.7687378
20
230.7015074
40
2.4874484
50
287.9888231
51
295.3048134
0
ARC
8
bottom_labelLayer
10
452.1688071
20
232.5165626
40
4.3990669
50
283.3068929
51
288.119824
0
ARC
8
bottom_labelLayer
10
451.5350215
20
235.1602565
40
7.1176619
50
280.0069698
51
283.3735339
0
ARC
8
bottom_labelLayer
10
451.110875
20
237.4620742
40
9.4581809
50
279.1862802
51
280.1142629
0
ARC
8
bottom_labelLayer
10
450.8506329
20
238.9422967
40
10.9609846
50
275.5260404
51
279.2939334
0
ARC
8
bottom_labelLayer
10
451.1439673
20
235.8784021
40
7.8830825
50
270.8932496
51
275.5483986
0
ARC
8
bottom_labelLayer
10
451.1808046
20
234.4806833
40
6.4849765
50
270.0032824
51
270.7603419
0
ARC
8
bottom_labelLayer
10
451.079127
20
234.6000511
40
6.6051328
50
253.7847943
51
270.8852535
0
ARC
8
bottom_labelLayer
10
450.2965949
20
231.9313178
40
3.8240489
50
190.38177
51
253.8772357
0
ARC
8
bottom_labelLayer
10
454.2851505
20
233.0097517
40
7.949009
50
179.3550896
51
192.847755
0
ARC
8
bottom_labelLayer
10
453.957837
20
233.174014
40
5.0923855
50
179.6416566
51
189.7505766
0
ARC
8
bottom_labelLayer
10
452.1601256
20
232.8533724
40
3.2663599
50
189.5479696
51
205.7873606
0
ARC
8
bottom_labelLayer
10
451.4213361
20
232.5126932
40
2.4529803
50
206.1294319
51
221.4084164
0
ARC
8
bottom_labelLayer
10
451.338503
20
232.4498403
40
2.3492945
50
221.5949194
51
262.3505107
0
ARC
8
bottom_labelLayer
10
451.5355134
20
233.4629485
40
3.380151
50
261.3266383
51
270.1913339
0
ARC
8
bottom_labelLayer
10
458.5174577
20
236.5760026
40
13.0628434
50
349.1761974
51
0.3862636
0
ARC
8
bottom_labelLayer
10
462.9154111
20
235.6992644
40
8.5785627
50
330.2507057
51
349.4116416
0
ARC
8
bottom_labelLayer
10
464.2688847
20
234.9957805
40
7.0546599
50
318.1439708
51
329.7566299
0
ARC
8
bottom_labelLayer
10
464.513161
20
234.800017
40
6.7421136
50
278.8959148
51
317.9979147
0
ARC
8
bottom_labelLayer
10
463.8837403
20
237.8156212
40
9.8200079
50
269.7502871
51
279.8033287
0
ARC
8
bottom_labelLayer
10
463.78166
20
236.1165139
40
8.1210236
50
253.5436905
51
270.4182506
0
ARC
8
bottom_labelLayer
10
463.5113296
20
235.0708054
40
7.0416682
50
238.8115538
51
253.2428274
0
ARC
8
bottom_labelLayer
10
463.4240819
20
234.8953519
40
6.846411
50
207.7947045
51
238.675798
0
ARC
8
bottom_labelLayer
10
464.6759544
20
235.6620694
40
8.3119088
50
205.65602
51
208.4461447
0
ARC
8
bottom_labelLayer
10
465.6402784
20
236.0638731
40
9.3552911
50
188.9102471
51
205.3171473
0
ARC
8
bottom_labelLayer
10
468.889982
20
236.6142684
40
12.6510914
50
179.7744699
51
189.0932889
0
ARC
8
bottom_labelLayer
10
469.369366
20
236.7530024
40
13.1306786
50
169.244298
51
180.3880772
0
ARC
8
bottom_labelLayer
10
464.9102879
20
237.6344003
40
8.5855165
50
150.7111469
51
169.4695448
0
ARC
8
bottom_labelLayer
10
463.4868057
20
238.3654126
40
6.9866331
50
138.1759344
51
150.2287492
0
ARC
8
bottom_labelLayer
10
463.2500298
20
238.5471106
40
6.689062
50
99.1759357
51
137.9832737
0
ARC
8
bottom_labelLayer
10
463.9017479
20
235.4800579
40
9.8220057
50
89.7326277
51
100.0759852
0
ARC
8
bottom_labelLayer
10
464.0320049
20
236.804607
40
8.497769
50
73.522278
51
90.5692241
0
ARC
8
bottom_labelLayer
10
464.5303477
20
238.6152229
40
6.6202599
50
41.1445692
51
73.2133785
0
ARC
8
bottom_labelLayer
10
463.5790509
20
237.7975966
40
7.8746087
50
13.5014371
51
41.0703435
0
ARC
8
bottom_labelLayer
10
459.9037219
20
236.8358122
40
11.6731689
50
1.1277209
51
13.8800023
0
ARC
8
bottom_labelLayer
10
456.7377384
20
236.6661642
40
14.8422659
50
359.9919004
51
1.5419545
0
ARC
8
bottom_labelLayer
10
471.6654584
20
236.5983453
40
12.806326
50
179.7059626
51
187.9160817
0
ARC
8
bottom_labelLayer
10
466.9685048
20
235.9236316
40
8.0612355
50
187.7639244
51
200.0976793
0
ARC
8
bottom_labelLayer
10
464.3809552
20
234.9755498
40
5.3054651
50
200.0845765
51
216.9131713
0
ARC
8
bottom_labelLayer
10
463.436084
20
234.300867
40
4.1448742
50
217.3009601
51
261.7099078
0
ARC
8
bottom_labelLayer
10
463.8747296
20
236.3940325
40
6.2808066
50
260.5033057
51
270.2476691
0
ARC
8
bottom_labelLayer
10
463.9584536
20
235.9870054
40
5.873993
50
269.4481566
51
284.7255801
0
ARC
8
bottom_labelLayer
10
464.423463
20
234.2624407
40
4.087888
50
284.5662301
51
322.6333831
0
ARC
8
bottom_labelLayer
10
463.3362449
20
235.0479068
40
5.4288006
50
323.0089309
51
342.6390505
0
ARC
8
bottom_labelLayer
10
460.2265692
20
236.0642376
40
8.7001771
50
342.3615753
51
353.75376
0
ARC
8
bottom_labelLayer
10
455.6387516
20
236.617239
40
13.3210225
50
353.5363084
51
0.2014108
0
ARC
8
bottom_labelLayer
10
456.3416606
20
236.7284672
40
12.6181955
50
359.7075706
51
7.8972609
0
ARC
8
bottom_labelLayer
10
460.9628136
20
237.3909503
40
7.9498744
50
7.7439895
51
20.0690206
0
ARC
8
bottom_labelLayer
10
463.5378904
20
238.3359079
40
5.2068939
50
20.0256957
51
37.4350618
0
ARC
8
bottom_labelLayer
10
464.3922744
20
238.9421667
40
4.160128
50
37.9577668
51
80.4006221
0
ARC
8
bottom_labelLayer
10
463.9067535
20
236.775831
40
6.3781768
50
79.3453297
51
90.3174913
0
ARC
8
bottom_labelLayer
10
463.8168517
20
237.135652
40
6.0185051
50
89.4805967
51
103.8805004
0
ARC
8
bottom_labelLayer
10
463.3111422
20
239.0613944
40
4.0277835
50
103.4685264
51
142.3118866
0
ARC
8
bottom_labelLayer
10
464.2942802
20
238.3699824
40
5.2287715
50
142.902576
51
162.3749709
0
ARC
8
bottom_labelLayer
10
467.3921553
20
237.3376217
40
8.4939366
50
162.0653097
51
173.1674841
0
ARC
8
bottom_labelLayer
10
472.2225549
20
236.721533
40
13.3633772
50
173.0086185
51
180.2463914
0
LINE
8
bottom_labelLayer
10
499.8245355
20
228.3003942
11
497.2956292
21
228.3003942
0
LINE
8
bottom_labelLayer
10
497.2956292
20
228.3003942
11
497.2956292
21
239.1625036
0
LINE
8
bottom_labelLayer
10
489.1757073
20
237.6238317
11
489.1757073
21
228.3003942
0
LINE
8
bottom_labelLayer
10
489.1757073
20
228.3003942
11
486.6468011
21
228.3003942
0
LINE
8
bottom_labelLayer
10
486.6468011
20
228.3003942
11
486.6468011
21
239.1625036
0
LINE
8
bottom_labelLayer
10
478.5421136
20
237.0601598
11
478.5421136
21
228.3003942
0
LINE
8
bottom_labelLayer
10
478.5421136
20
228.3003942
11
476.0132073
21
228.3003942
0
LINE
8
bottom_labelLayer
10
476.0132073
20
228.3003942
11
476.0132073
21
244.9972692
0
LINE
8
bottom_labelLayer
10
476.0132073
20
244.9972692
11
478.069848
21
244.9972692
0
LINE
8
bottom_labelLayer
10
478.069848
20
244.9972692
11
478.4811761
21
242.7121129
0
LINE
8
bottom_labelLayer
10
478.4811761
20
242.7121129
11
478.6030511
21
242.7121129
0
LINE
8
bottom_labelLayer
10
488.6577386
20
242.4683629
11
488.7796136
21
242.4683629
0
LINE
8
bottom_labelLayer
10
499.8245355
20
239.1929723
11
499.8245355
21
228.3003942
0
ARC
8
bottom_labelLayer
10
489.8352646
20
239.2022406
40
7.4604704
50
359.6948216
51
8.1471427
0
ARC
8
bottom_labelLayer
10
492.5831862
20
239.6089002
40
4.6826707
50
7.986469
51
20.7949614
0
ARC
8
bottom_labelLayer
10
494.1021629
20
240.1907636
40
3.0560726
50
20.7071316
51
40.02176
0
ARC
8
bottom_labelLayer
10
494.4353948
20
240.4087935
40
2.6610942
50
41.0408051
51
73.1792774
0
ARC
8
bottom_labelLayer
10
493.9532157
20
238.9504429
40
4.1967675
50
72.6395325
51
86.2568228
0
ARC
8
bottom_labelLayer
10
493.7987467
20
237.283588
40
5.8703258
50
85.8144842
51
90.0685536
0
ARC
8
bottom_labelLayer
10
493.7419939
20
236.6468186
40
6.5072812
50
89.5621373
51
101.2961597
0
ARC
8
bottom_labelLayer
10
493.2518841
20
238.9931441
40
4.1104599
50
101.0032149
51
121.7840633
0
ARC
8
bottom_labelLayer
10
492.8792848
20
239.6583391
40
3.3489319
50
122.3597302
51
140.2884044
0
ARC
8
bottom_labelLayer
10
493.5496348
20
239.1668156
40
4.1789594
50
140.976525
51
161.1699503
0
ARC
8
bottom_labelLayer
10
496.0750072
20
238.2680934
40
6.8593397
50
160.873184
51
172.5272522
0
ARC
8
bottom_labelLayer
10
500.2948661
20
237.6853011
40
11.1191915
50
172.3776615
51
180.1829485
0
ARC
8
bottom_labelLayer
10
503.2045595
20
237.6238473
40
14.0288521
50
179.8940178
51
180.0000636
0
ARC
8
bottom_labelLayer
10
479.1864365
20
239.2022406
40
7.4604704
50
359.6948216
51
8.1471427
0
ARC
8
bottom_labelLayer
10
481.9343581
20
239.6089002
40
4.6826707
50
7.986469
51
20.7949614
0
ARC
8
bottom_labelLayer
10
483.4533348
20
240.1907636
40
3.0560726
50
20.7071316
51
40.02176
0
ARC
8
bottom_labelLayer
10
483.7934939
20
240.4135794
40
2.6527271
50
41.0610804
51
72.8993529
0
ARC
8
bottom_labelLayer
10
483.3021817
20
238.9508926
40
4.1954048
50
72.360086
51
85.9561953
0
ARC
8
bottom_labelLayer
10
483.1358643
20
237.2320145
40
5.9219008
50
85.523809
51
90.0793738
0
ARC
8
bottom_labelLayer
10
483.0791315
20
236.8730169
40
6.2810804
50
89.5573164
51
101.4832021
0
ARC
8
bottom_labelLayer
10
482.5970392
20
239.1317352
40
3.9716644
50
101.1546417
51
123.0655532
0
ARC
8
bottom_labelLayer
10
482.2693348
20
239.7025818
40
3.3146778
50
123.702038
51
142.3022069
0
ARC
8
bottom_labelLayer
10
483.0369601
20
239.1818148
40
4.2408938
50
143.076977
51
161.3913731
0
ARC
8
bottom_labelLayer
10
486.1311879
20
238.0890039
40
7.5222297
50
161.0234397
51
171.4469072
0
ARC
8
bottom_labelLayer
10
491.2536059
20
237.2865927
40
12.7070572
50
171.3041917
51
178.3501702
0
ARC
8
bottom_labelLayer
10
496.1491494
20
237.0679463
40
17.6070374
50
178.0976211
51
180.0253382
0
ARC
8
bottom_labelLayer
10
482.8873593
20
240.1927287
40
4.9701704
50
117.1209507
51
149.5423749
0
ARC
8
bottom_labelLayer
10
483.3946081
20
239.2911595
40
6.0039847
50
93.8343235
51
117.5072161
0
ARC
8
bottom_labelLayer
10
483.5347129
20
238.0501654
40
7.2517926
50
89.9662185
51
94.283131
0
ARC
8
bottom_labelLayer
10
483.6186534
20
237.0226763
40
8.2796637
50
77.5572319
51
90.5512937
0
ARC
8
bottom_labelLayer
10
484.3869158
20
240.3271192
40
4.8874528
50
52.7027062
51
78.0053815
0
ARC
8
bottom_labelLayer
10
484.6606332
20
240.8363779
40
4.3174329
50
22.2097873
51
51.4970591
0
ARC
8
bottom_labelLayer
10
493.3608384
20
239.8428526
40
5.2802392
50
119.4041794
51
150.18288
0
ARC
8
bottom_labelLayer
10
493.9463569
20
238.9524774
40
6.3438043
50
118.2583539
51
120.0630229
0
ARC
8
bottom_labelLayer
10
493.9447739
20
238.8872242
40
6.4006127
50
95.8635166
51
117.9693203
0
ARC
8
bottom_labelLayer
10
494.1613939
20
237.3209142
40
7.9810503
50
89.9196786
51
96.2617649
0
ARC
8
bottom_labelLayer
10
494.2309405
20
236.5115283
40
8.7906221
50
79.9361077
51
90.3803713
0
ARC
8
bottom_labelLayer
10
494.8166747
20
239.6837985
40
5.5648521
50
62.9723132
51
80.1665276
0
ARC
8
bottom_labelLayer
10
495.428976
20
240.9400037
40
4.1676757
50
44.229003
51
62.6229009
0
ARC
8
bottom_labelLayer
10
495.2468622
20
240.8595539
40
4.3548395
50
19.5612004
51
43.3161118
0
ARC
8
bottom_labelLayer
10
492.6019707
20
239.8661303
40
7.1798693
50
7.5041972
51
19.9645323
0
ARC
8
bottom_labelLayer
10
488.2254333
20
239.2515332
40
11.59925
50
359.7107306
51
7.69073
0
ENDSEC
0
EOF